<?xml version="1.0" encoding="utf-8"?>
<!-- Generator: Adobe Illustrator 24.3.0, SVG Export Plug-In . SVG Version: 6.00 Build 0)  -->
<svg version="1.1" id="Layer_1" xmlns="http://www.w3.org/2000/svg" xmlns:xlink="http://www.w3.org/1999/xlink" x="0px" y="0px"
	 viewBox="0 0 720 720" style="enable-background:new 0 0 720 720;" xml:space="preserve">
<style type="text/css">
	.st0{fill:#FEEA3E;}
	.st1{fill:#DDCB33;}
	.st2{fill:#FFFFFF;}
	.st3{fill:#A36327;}
	.st4{fill:#CAD3CD;}
	.st5{fill:#804C1F;}
	.st6{fill:#DBDDDC;}
	.st7{fill:#A7ADA9;}
	.st8{fill:#11161C;}
</style>
<g>
	<path class="st0" d="M321.57,175.7c6.53-2.99,14.79-4.48,24.81-4.48c8.97-0.05,16.99,1,24.06,3.14
		c3.49-8.72,14.64-22.46,33.47-41.24c18.28-18.28,28.91-26.97,31.9-26.08c2.39,0.7,1.59,16.54-2.39,47.52
		c-3.19,24.71-6.35,45.33-9.49,61.86l1.57,8.67c2.69,15.19,3.98,28.34,3.89,39.45c-0.15,12.95-2.19,23.91-6.13,32.87
		c-4.48,10.16-11.23,19.1-20.25,26.82c-9.51,8.12-19.7,13.22-30.56,15.32c-3.39,6.77-7.3,12.45-11.73,17.04
		c-4.73,4.93-8.87,7.3-12.4,7.1c-3.89-0.2-8.14-2.79-12.78-7.77c-4.28-4.63-8.02-10.26-11.21-16.89
		c-11.16-2.59-21.47-7.75-30.93-15.47c-9.07-7.42-15.29-15.47-18.68-24.13c-4.03-10.46-6.3-21.74-6.8-33.85
		c-0.35-9.12,0.35-19.6,2.09-31.46l2.47-15.39c-7.52-18.08-13.77-40.4-18.75-66.94c-4.73-24.86-5.83-37.83-3.29-38.93
		c3.04-1.39,13.75,5.78,32.13,21.52C301.6,150.67,314.6,164.44,321.57,175.7"/>
	<path class="st0" d="M143.15,246.08c2.59,1.3,6.1,3.34,10.53,6.13l10.01,9.94c6.28,6.53,10.81,10.83,13.6,12.93
		c-4.73-1.05-10.98-1.05-18.75,0c-7.62,1-13.05,2.47-16.29,4.41c-0.7,0.45-1.49,1.17-2.39,2.17l-4.71-3.66l-2.39,5.08
		c-1.79,2.79-4.61,5.53-8.44,8.22c-4.18,2.94-7.85,4.43-10.98,4.48c-1.64,0-2.91-0.32-3.81-0.97c-2.79-1.89-3.61-6.53-2.47-13.9
		c0.85-5.63,2.69-12.2,5.53-19.72c1.89-5.08,3.41-8.64,4.56-10.68c0.95-1.59,3.16-3.09,6.65-4.48c2.89-1.15,6.18-2.07,9.86-2.76
		C135.6,242.89,138.77,243.84,143.15,246.08"/>
	<path class="st0" d="M109.53,294.79c0.9,0.65,2.17,0.97,3.81,0.97c-1.39,6.38-2.64,10.11-3.74,11.21l-5.3,4.71
		c-1.99,1.39-4.11,2.39-6.35,2.99c-2.84,0.8-5.21,0.6-7.1-0.6c-1.89-1.25-3.06-3.26-3.51-6.05c-0.95-5.68-0.97-11.8-0.07-18.38
		c1.1-8.42,3.36-14.97,6.8-19.65c1.59-2.24,4.58-4.23,8.97-5.98c3.14-1.3,6.33-2.24,9.56-2.84c-2.84,7.52-4.68,14.1-5.53,19.72
		C105.92,288.27,106.74,292.9,109.53,294.79"/>
	<path class="st0" d="M81.88,293.23c0.75-1.54,1.67-2.54,2.76-2.99l2.62-0.6c-0.9,6.57-0.87,12.7,0.07,18.38
		c0.45,2.79,1.62,4.81,3.51,6.05c1.89,1.2,4.26,1.39,7.1,0.6c-1.25,3.59-3.56,6.5-6.95,8.74c-3.04,1.94-6.23,2.96-9.56,3.06
		c-3.98,0.1-6.53-1.2-7.62-3.89c-1.1-2.54-0.32-7.7,2.32-15.47C77.97,301.79,79.89,297.16,81.88,293.23"/>
	<path class="st0" d="M431.55,375.34l-1.64-4.86l3.74-1.27c1.15,1.05,2.96,2.37,5.45,3.96l6.5-7.7c1.54,7.37,5.38,19.43,11.51,36.16
		c5.63,15.39,10.36,27.22,14.2,35.49l32.5,35.64c13,14.84,20.25,24.48,21.74,28.91c1.59,4.58,2.71,10.98,3.36,19.2
		c0.7,8.67,0.42,15.07-0.82,19.2c-1.99,6.67-5.73,14.22-11.21,22.64l-16.74,24.36c0.8,2.54,2.22,5.6,4.26,9.19
		c2.34,4.18,4.78,7.6,7.32,10.24c1.99,1.49,5.3,3.56,9.94,6.2c3.14,1.74,5.35,3.51,6.65,5.3c1.69,2.39,1.94,5.75,0.75,10.09
		c-1.3,4.43-3.36,6.82-6.2,7.17c-2.59,0.3-6.45,0.32-11.58,0.07l-11.13-1.2l-1.72,0.67l-10.39,0.67l-12.93-0.67
		c-0.7,0.5-1.3,0.8-1.79,0.9l-16.66,1.34c-8.77-0.1-15.22-1.17-19.35-3.21c-5.08-2.54-9.56-10.76-13.45-24.66
		c-3.49-12.6-4.78-21.69-3.89-27.27c0.35-2.09,1.49-4.56,3.44-7.4l6.13-8.82c6.08-9.36,10.06-20.99,11.95-34.89
		c-8.22-6.82-16.21-12.95-23.98-18.38c-9.12-6.38-16.94-11.11-23.46-14.2c-6.53-3.04-18.5-2.69-35.94,1.05
		c-16.99,3.59-30.41,8.42-40.27,14.49c-0.4,6.18,1.39,11.98,5.38,17.41c2.69,3.74,6.1,6.97,10.24,9.71c1.3,0.85,2.32,2.64,3.06,5.38
		c0.75,2.64,1.12,5.68,1.12,9.12c0,1.94-3.56,11.01-10.68,27.2c-1.69,3.74-4.21,7.35-7.55,10.83c-3.09,3.14-5.4,4.81-6.95,5.01
		l-14.72,1.79l-15.32-0.67c-12.55,1.54-21.29,1.3-26.23-0.75l-15.54,0.52c-4.33-0.7-7.15-1.87-8.44-3.51
		c-1.54-1.99-2.04-4.93-1.49-8.82c0.5-3.54,1.49-6.08,2.99-7.62c1.05-1.1,3.71-2.64,7.99-4.63l7.85-3.44
		c0.85-0.35,2.34-2.74,4.48-7.17c2.19-4.63,3.46-7.22,3.81-7.77c-5.48-4.48-11.61-13.27-18.38-26.37
		c-6.08-11.76-9.04-18.88-8.89-21.37c0.15-2.49,1.1-6.9,2.84-13.22c1.89-7.07,3.64-11.73,5.23-13.97l22.56-26.45
		c13.75-16.09,21.49-26.18,23.24-30.26c2.34-5.58,3.71-13.03,4.11-22.34l-0.22-18.83l1.42-1.94l1.42-1.2l2.47,0.82
		c1.49,0.45,2.71,0.97,3.66,1.57l-2.17,5.83c-1.3,3.64-1.67,6-1.12,7.1c0.45-0.05,2.24-0.9,5.38-2.54c3.14-1.69,4.96-2.57,5.45-2.62
		l0.6,3.74c0.45,2.04,0.87,3.14,1.27,3.29c0.45,0,1.52-0.7,3.21-2.09c1.79-1.44,2.86-2.22,3.21-2.32c0.65,0.6,1.12,2.52,1.42,5.75
		c0.3,3.04,0.67,4.58,1.12,4.63l4.18-2.99l4.56-3.44l2.84,4.33l4.63-2.47l1.94,5.6c1.39,3.39,2.49,5.38,3.29,5.98l3.74-4.33l5.3-5.6
		l2.62,4.18c1.15,1.69,2.49,3.24,4.03,4.63c1.54-4.53,2.79-7.82,3.74-9.86l2.02,2.47l3.66,3.44c1.79-1.64,3.49-3.54,5.08-5.68
		l2.47,3.74c1.64,2.24,2.89,3.69,3.74,4.33c1.59-2.99,2.79-4.73,3.59-5.23c0.5,1,1.64,2.34,3.44,4.03l4.48,3.74l2.09-5.98
		c1.3-3.69,2.22-5.98,2.76-6.87l3.96,2.69c2.59,1.59,4.21,2.52,4.86,2.76c0.4-3.84,0.85-6.82,1.34-8.97l3.21,2.32
		c1.39,0.95,2.29,1.39,2.69,1.34c0.5-1.54,0.8-3.29,0.9-5.23l2.54,1.49c1.2,0.85,2.14,1.42,2.84,1.72c0-3.79,0.15-6.2,0.45-7.25
		l4.26,2.54c2.14,1.15,3.44,1.72,3.89,1.72c-0.3-2.24-0.52-4.78-0.67-7.62c5.28,2.14,7.92,2.94,7.92,2.39c0-1.2-0.72-4.28-2.17-9.26
		l6.35,0.3C432.37,378.4,432.15,377.33,431.55,375.34"/>
	<path class="st0" d="M105.34,326.03c-0.35,4.88-1.07,8.62-2.17,11.21c-1.39,3.24-4.31,5.93-8.74,8.07
		c-4.53,2.14-8.12,2.54-10.76,1.2c-1.25-0.65-2.02-3.31-2.32-7.99c-0.25-3.39-0.22-7.4,0.07-12.03c3.34-0.1,6.53-1.12,9.56-3.06
		c3.39-2.24,5.7-5.16,6.95-8.74c1.94-0.5,4.08-1.59,6.43-3.29C105.57,314.37,105.89,319.25,105.34,326.03"/>
	<path class="st0" d="M132.76,283.06l2.39-5.08l4.71,3.66c0.9-1,1.69-1.72,2.39-2.17c3.24-1.94,8.67-3.41,16.29-4.41
		c7.77-1.05,14.02-1.05,18.75,0c2.09,0.5,3.59,1.12,4.48,1.87c2.49,2.09,4.61,7.72,6.35,16.89c1.94,10.46,3.36,16.51,4.26,18.16
		c2.09,3.98,7.02,11.51,14.79,22.56c8.82,12.55,15.69,21.39,20.62,26.52l18.9-14.57h0.37c-0.4,0.8-0.82,2.12-1.27,3.96l-0.9,4.26
		l2.84-0.37l2.91-0.6l-2.39,6.87l8.67-0.82l-1.64,7.77c-0.75,3.59-1.05,5.6-0.9,6.05l6.35-2.76l5.6-3.06
		c0.45,0.75,0.87,2.42,1.27,5.01l0.75,4.11c1.89-0.55,3.49-1.47,4.78-2.76l3.66,7.32c0.6-0.05,1.57-0.9,2.91-2.54l2.17-3.36
		l3.51,9.56c-5.93,6.18-15.74,13.15-29.44,20.92c-14.3,8.12-24.36,12.1-30.18,11.95c-6.87-0.15-21.94-10.41-45.2-30.78
		c-21.62-18.93-34.92-32.25-39.9-39.97c-0.35-0.5-2.22-1.27-5.6-2.32c-3.79-1.15-6.57-2.44-8.37-3.89c-1.39-1.1-3.64-3.74-6.72-7.92
		c-2.69-3.59-4.88-5.75-6.57-6.5c-2.54-1.1-5.23-1.3-8.07-0.6c0.55-6.77,0.22-11.66-0.97-14.64l5.23-4.41
		c1.1-1.1,2.34-4.83,3.74-11.21c3.14-0.05,6.8-1.54,10.98-4.48C128.16,288.59,130.97,285.85,132.76,283.06"/>
	<path class="st0" d="M448.66,143.42c1.94,3.69,4.03,7.27,6.28,10.76c2.04,3.19,3.59,5.33,4.63,6.43c1.3,1.34,3.14,2.47,5.53,3.36
		c2.84,1.05,5.78,1.49,8.82,1.34h0.3l9.94,0.45l1.42,0.9c1.39,1.1,2.59,2.84,3.59,5.23c0.9,2.24,1.49,4.58,1.79,7.02
		c0.4,2.84,0.25,5.08-0.45,6.72c-0.35,0.85-2.29,2.24-5.83,4.18c-4.13,2.34-8.02,3.81-11.66,4.41l-3.51,0.3
		c-1.15,0-5.06-1.52-11.73-4.56c-6.97-3.19-11.18-5.5-12.63-6.95c-1.74-1.69-3.16-4.33-4.26-7.92c-1.2-3.84-1.37-6.87-0.52-9.12
		l4.71-8.82C447.41,152.39,448.61,147.81,448.66,143.42"/>
	<path class="st0" d="M538.62,166.58l4.48-4.63c0.7,4.53,3.98,19.4,9.86,44.61c6.28,26.65,10.49,46.17,12.63,58.58
		c-13.85-11.41-26.72-24.56-38.63-39.45c-12.1-15.04-22.09-30.51-29.96-46.4c1.99-0.8,5.23-2.81,9.71-6.05
		c3.69-2.64,7.07-5.25,10.16-7.85l6.65,0.3c2.14-0.15,3.49-0.52,4.03-1.12l0.3-0.37c0.8,1.74,2.32,2.94,4.56,3.59
		C534.81,168.43,536.87,168.03,538.62,166.58"/>
	<path class="st1" d="M508.06,162.25c1.2,1.49,4.13,2.54,8.82,3.14c-3.09,2.59-6.48,5.21-10.16,7.85c-4.48,3.24-7.72,5.25-9.71,6.05
		c-2.59-5.28-4.98-10.76-7.17-16.44c3.14,1.54,6.4,2.39,9.79,2.54l4.56-0.97L508.06,162.25"/>
	<path class="st0" d="M549.6,127.36c1.3,2.09,2.44,5.01,3.44,8.74c1.34,5.08,1.39,8.94,0.15,11.58c-1.94,3.94-5.3,8.69-10.09,14.27
		l-4.48,4.63c-1.74,1.44-3.81,1.84-6.2,1.2c-2.24-0.65-3.76-1.84-4.56-3.59l-0.3,0.37c-0.55,0.6-1.89,0.97-4.03,1.12l-6.65-0.3
		c-4.68-0.6-7.62-1.64-8.82-3.14l-3.89,2.17l-4.56,0.97c-3.39-0.15-6.65-1-9.79-2.54c-0.8-0.4-1.94-1.1-3.44-2.09l-2.54,1.57
		c-3.09,1.74-6.3,2.74-9.64,2.99h-0.3c-3.04,0.15-5.98-0.3-8.82-1.34c-2.39-0.9-4.23-2.02-5.53-3.36c-1.05-1.1-2.59-3.24-4.63-6.43
		c-2.24-3.49-4.33-7.07-6.28-10.76c-3.98-7.62-6.08-13.12-6.28-16.51c-0.25-4.13,2.42-11.9,7.99-23.31
		c5.18-10.61,8.64-16.59,10.39-17.93c1.39-1,3.86-1.74,7.4-2.24l7.85,0.3c2.14,0.95,5.53,3.54,10.16,7.77l7.92-0.52l10.61,0.37
		c1.89,0.85,4.46,2.76,7.7,5.75l4.86,4.86l6.95,1.2l7.4,1.42c4.13,3.59,6.6,8.54,7.4,14.87C545.07,123.07,548.6,125.71,549.6,127.36
		"/>
	<path class="st2" d="M425.8,226.13c4.03-1.94,6.53-2.96,7.47-3.06c0.2,0.6-0.15,1.92-1.05,3.96l-1.2,3.44l5.23-0.97l4.48-1.05
		c-0.05,1.3-0.4,3.06-1.05,5.3l-1.42,4.18c1.44,1.2,4.06,1.87,7.85,2.02l-1.2,2.24l-1.79,2.09c2.44,0.6,3.84,1.32,4.18,2.17
		c0.25,0.7-0.2,1.79-1.34,3.29l7.62,0.45c3.29,0.15,5.21,0.47,5.75,0.97c-0.6,1.2-2.17,3.31-4.71,6.35
		c-2.39,2.84-3.61,4.38-3.66,4.63l11.88-0.15l-2.99,4.78l1.72,1.87l1.05,1.42l-1.64,2.02l-2.02,1.94l3.81,0.67
		c1.84,0.15,2.86,0.62,3.06,1.42c0.3,1-0.95,3.24-3.74,6.72l0.67,1.42l7.62-0.52l-1.34,2.39l-2.91,5.01
		c0.45,0.65,1.79,1.89,4.03,3.74l3.36,2.99l-2.17,1.79l-1.87,1.27c0,0.55,0.92,1.54,2.76,2.99l3.36,3.14l-5.9,3.36l3.44,3.44
		l3.36,3.36c-3.39,1.44-5.4,2.17-6.05,2.17c0.75,1.54,3.56,5.5,8.44,11.88l-6.87,0.75l-5.75,0.37c-0.1,0.55,0.3,2.04,1.2,4.48
		l1.42,3.81l-6.05,0.3c0.25,1.2,0.97,2.52,2.17,3.96l2.39,2.17l-5.08,1.57l-4.33,0.9l0.07,0.3l1.79,5.23
		c0.95,2.44,1.64,3.89,2.09,4.33l-5.01,0.22l-5.3-0.52c-0.1,0.45-0.02,1.84,0.22,4.18c0.25,2.34,0.47,3.69,0.67,4.03
		c-3.34-0.65-5.58-1.34-6.72-2.09l-0.22,0.22l-6.5,7.7c-2.49-1.59-4.31-2.91-5.45-3.96l-3.74,1.27l1.64,4.86
		c0.6,1.99,0.82,3.06,0.67,3.21l-6.35-0.3c1.44,4.98,2.17,8.07,2.17,9.26c0,0.55-2.64-0.25-7.92-2.39c0.15,2.84,0.37,5.38,0.67,7.62
		c-0.45,0-1.74-0.57-3.89-1.72l-4.26-2.54c-0.3,1.05-0.45,3.46-0.45,7.25c-0.7-0.3-1.64-0.87-2.84-1.72l-2.54-1.49
		c-0.1,1.94-0.4,3.69-0.9,5.23c-0.4,0.05-1.3-0.4-2.69-1.34l-3.21-2.32c-0.5,2.14-0.95,5.13-1.34,8.97
		c-0.65-0.25-2.27-1.17-4.86-2.76l-3.96-2.69c-0.55,0.9-1.47,3.19-2.76,6.87l-2.09,5.98l-4.48-3.74c-1.79-1.69-2.94-3.04-3.44-4.03
		c-0.8,0.5-1.99,2.24-3.59,5.23c-0.85-0.65-2.09-2.09-3.74-4.33l-2.47-3.74c-1.59,2.14-3.29,4.03-5.08,5.68l-3.66-3.44l-2.02-2.47
		c-0.95,2.04-2.19,5.33-3.74,9.86c-1.54-1.39-2.89-2.94-4.03-4.63l-2.62-4.18l-5.3,5.6l-3.74,4.33c-0.8-0.6-1.89-2.59-3.29-5.98
		l-1.94-5.6l-4.63,2.47l-2.84-4.33l-4.56,3.44l-4.18,2.99c-0.45-0.05-0.82-1.59-1.12-4.63c-0.3-3.24-0.77-5.16-1.42-5.75
		c-0.35,0.1-1.42,0.87-3.21,2.32c-1.69,1.39-2.76,2.09-3.21,2.09c-0.4-0.15-0.82-1.25-1.27-3.29l-0.6-3.74
		c-0.5,0.05-2.32,0.92-5.45,2.62c-3.14,1.64-4.93,2.49-5.38,2.54c-0.55-1.1-0.17-3.46,1.12-7.1l2.17-5.83
		c-0.95-0.6-2.17-1.12-3.66-1.57l-2.47-0.82l-2.99,3.44l-2.24,2.84l-4.03-11.13l-2.17,3.36c-1.34,1.64-2.32,2.49-2.91,2.54
		l-3.66-7.32c-1.3,1.3-2.89,2.22-4.78,2.76l-0.75-4.11c-0.4-2.59-0.82-4.26-1.27-5.01l-5.6,3.06l-6.35,2.76
		c-0.15-0.45,0.15-2.47,0.9-6.05l1.64-7.77l-8.67,0.82l2.39-6.87l-2.91,0.6l-2.84,0.37l0.9-4.26c0.45-1.84,0.87-3.16,1.27-3.96
		h-0.37l-5.16-0.52l-5.53-1.2l3.59-5.3l3.96-4.63l-2.09-1.2l-1.94-1.49l3.21-3.74c-2.74-0.8-4.38-1.74-4.93-2.84
		c1.54-1.99,3.24-3.79,5.08-5.38c-2.34-1.25-3.98-2.54-4.93-3.89l2.24-2.76c1.39-1.54,2.57-2.71,3.51-3.51l-2.17-3.21l-3.51-4.71
		c5.68-1.69,9.84-2.42,12.48-2.17l-0.07-1.87c-3.74-1.59-6.57-3.16-8.52-4.71l2.99-3.06l3.59-3.74l-1.64-0.6
		c-1.25-0.55-2.39-1.44-3.44-2.69l2.47-2.17l2.91-2.32l-2.09-2.24l-2.76-3.29c0.45-0.4,1.47-0.8,3.06-1.2l2.84-0.9l-5.98-7.85
		l7.77-4.41l-0.82-3.06l-1.49-3.74l7.17-0.6l-0.75-2.17l-0.82-2.54l4.03-0.15l-1.05-2.91c-0.45-1.64-0.65-2.86-0.6-3.66l6.43-0.07
		l-0.07-4.18c-0.05-2.29,0.07-3.79,0.37-4.48l2.47,1.12c1.59,0.55,2.76,1.1,3.51,1.64c-1.74,11.85-2.44,22.34-2.09,31.46
		c0.5,12.1,2.76,23.39,6.8,33.85c3.39,8.67,9.61,16.71,18.68,24.13c9.46,7.72,19.77,12.88,30.93,15.47
		c3.19,6.62,6.92,12.25,11.21,16.89c4.63,4.98,8.89,7.57,12.78,7.77c3.54,0.2,7.67-2.17,12.4-7.1c4.43-4.58,8.34-10.26,11.73-17.04
		c10.86-2.09,21.04-7.2,30.56-15.32c9.02-7.72,15.76-16.66,20.25-26.82c3.93-9.02,6.03-19.8,6.28-32.35
		C429.73,254.15,428.49,241.17,425.8,226.13"/>
	<path class="st2" d="M597.27,286.65c-0.8,0.05-1.44,0.35-1.94,0.9c-0.55,0.55-0.82,1.22-0.82,2.02v0.15
		c-9.02-4.68-18.31-10.71-27.87-18.08c-15.24-11.85-29.54-25.95-42.89-42.29c-13.55-16.54-24.48-33.35-32.8-50.43
		c-0.3-2.44-0.9-4.78-1.79-7.02c-1-2.39-2.19-4.13-3.59-5.23l-1.72-4.33l2.54-1.57c1.49,1,2.64,1.69,3.44,2.09
		c2.19,5.68,4.58,11.16,7.17,16.44c7.87,15.89,17.86,31.36,29.96,46.4c11.9,14.89,24.78,28.04,38.63,39.45
		C576.25,273.95,586.81,281.12,597.27,286.65"/>
	<path class="st0" d="M566.64,271.63c1.64,11.31,1.92,18.55,0.82,21.74c-2.04,5.88-14.22,14.72-36.54,26.52
		c-21.67,11.46-42.84,20.52-63.51,27.2l-2.39-2.17c-1.2-1.44-1.92-2.76-2.17-3.96l6.05-0.3l-1.42-3.81c-0.9-2.44-1.3-3.94-1.2-4.48
		l5.75-0.37l6.87-0.75c-4.88-6.38-7.7-10.34-8.44-11.88c0.65,0,2.66-0.72,6.05-2.17l-3.36-3.36l-3.44-3.44l5.9-3.36l-3.36-3.14
		c-1.84-1.44-2.76-2.44-2.76-2.99l1.87-1.27l2.17-1.79l-3.36-2.99c-2.24-1.84-3.59-3.09-4.03-3.74l2.91-5.01
		c22.51-8.97,35.99-16.84,40.42-23.61l-1.72-3.51c-3.49-6.03-9.91-17.98-19.28-35.86l-15.47-28.91c3.64-0.6,7.52-2.07,11.66-4.41
		c3.54-1.94,5.48-3.34,5.83-4.18c0.7-1.64,0.85-3.89,0.45-6.72c8.32,17.08,19.25,33.9,32.8,50.43
		C537.1,245.68,551.39,259.78,566.64,271.63"/>
	<path class="st3" d="M405.85,149.77c10.96-14.4,18.28-22.84,21.97-25.33c0.75,4.83-0.67,18.13-4.26,39.9
		c-3.49,21.07-6.35,34.84-8.59,41.32c-2.94-4.68-7.5-9.49-13.67-14.42c-5.43-4.33-10.49-7.55-15.17-9.64
		C387.52,175.82,394.09,165.21,405.85,149.77"/>
	<path class="st3" d="M306.03,184.89c-3.29,0.95-8.14,4.21-14.57,9.79c-6.13,5.38-9.89,9.44-11.28,12.18
		c-3.59-6.57-7.97-19.5-13.15-38.78c-5.18-19.38-7.6-31.83-7.25-37.36c5.58,1.99,14.52,10.39,26.82,25.18
		C298.51,170.24,304.98,179.91,306.03,184.89"/>
	<path class="st4" d="M617.59,285.01c8.02,0,14.84,2.81,20.47,8.44c5.63,5.68,8.44,12.5,8.44,20.47c0,8.02-2.81,14.84-8.44,20.47
		c-5.63,5.63-12.45,8.44-20.47,8.44c-7.97,0-14.79-2.81-20.47-8.44c-5.63-5.63-8.44-12.45-8.44-20.47c0-4.08,0.82-7.97,2.47-11.66
		c1.59-3.59,3.81-6.72,6.65-9.41l2.54,2.69c-2.49,2.34-4.43,5.08-5.83,8.22c-1.44,3.24-2.17,6.62-2.17,10.16
		c0,6.97,2.47,12.93,7.4,17.86c4.93,4.93,10.88,7.4,17.86,7.4c6.97,0,12.93-2.47,17.86-7.4c4.93-4.93,7.4-10.88,7.4-17.86
		c0-6.92-2.47-12.88-7.4-17.86c-4.93-4.93-10.88-7.4-17.86-7.4c-5.38,0-10.24,1.54-14.57,4.63l-2.47-2.76
		C605.69,286.85,611.36,285.01,617.59,285.01"/>
	<path class="st4" d="M617.59,288.67c6.97,0,12.93,2.47,17.86,7.4c4.93,4.98,7.4,10.93,7.4,17.86c0,6.97-2.47,12.93-7.4,17.86
		c-4.93,4.93-10.88,7.4-17.86,7.4c-6.97,0-12.93-2.47-17.86-7.4c-4.93-4.93-7.4-10.88-7.4-17.86c0-3.54,0.72-6.92,2.17-10.16
		c1.39-3.14,3.34-5.88,5.83-8.22c3.04,3.64,5.45,7.2,7.25,10.68c-1.74,2.29-2.62,4.86-2.62,7.7c0,3.49,1.25,6.45,3.74,8.89
		c2.44,2.49,5.4,3.74,8.89,3.74s6.45-1.25,8.89-3.74c2.49-2.44,3.74-5.4,3.74-8.89c0-3.49-1.25-6.45-3.74-8.89
		c-2.44-2.49-5.4-3.74-8.89-3.74c-2.64,0-5.03,0.75-7.17,2.24c-1.79-3.24-4.26-6.65-7.4-10.24
		C607.35,290.21,612.21,288.67,617.59,288.67"/>
	<path class="st4" d="M608.7,322.81c-2.49-2.44-3.74-5.4-3.74-8.89c0-2.84,0.87-5.4,2.62-7.7l0.97,2.02l0.75,1.05
		c-0.8,1.3-1.2,2.84-1.2,4.63c0,2.64,0.92,4.88,2.76,6.72c1.89,1.84,4.13,2.76,6.72,2.76c2.64,0,4.88-0.92,6.72-2.76
		c1.84-1.84,2.76-4.08,2.76-6.72c0-2.59-0.92-4.83-2.76-6.72c-1.84-1.84-4.08-2.76-6.72-2.76c-2.09,0-4.03,0.65-5.83,1.94
		l-1.34-2.84c2.14-1.49,4.53-2.24,7.17-2.24c3.49,0,6.45,1.25,8.89,3.74c2.49,2.44,3.74,5.4,3.74,8.89c0,3.49-1.25,6.45-3.74,8.89
		c-2.44,2.49-5.4,3.74-8.89,3.74S611.14,325.3,608.7,322.81"/>
	<path class="st2" d="M603.92,300.62c-2.14-3.44-4.03-5.95-5.68-7.55l1.34-1.2l1.42-1.12c2.24,1.84,4.61,4.48,7.1,7.92
		c2.39,3.29,3.79,5.73,4.18,7.32c0.35,1.44,0.17,2.62-0.52,3.51c-0.75,0.9-1.47,1.07-2.17,0.52l-1.49-1.87
		C607.26,306.18,605.86,303.66,603.92,300.62"/>
	<path class="st2" d="M595.03,287.85c0.55-0.6,1.22-0.9,2.02-0.9c0.8,0,1.47,0.27,2.02,0.82c0.6,0.6,0.9,1.3,0.9,2.09l-0.07,0.52
		l-0.52,1.2l-0.97,0.82l-1.34,0.3c-0.75,0-1.39-0.25-1.94-0.75c-0.55-0.55-0.85-1.2-0.9-1.94v-0.15
		C594.21,289.07,594.48,288.39,595.03,287.85"/>
	<path class="st2" d="M385.97,269.39c6.67-2.84,13.03-2.17,19.05,2.02c1,0.7,1.25,1.79,0.75,3.29c-0.55,1.49-1.49,2.37-2.84,2.62
		c-5.23,1.05-10.04,2.57-14.42,4.56c-4.73,2.14-9.56,5.11-14.49,8.89c-0.45,0.35-1.2,0.05-2.24-0.9c-1.1-1-1.47-1.99-1.12-2.99
		C373.99,278.16,379.1,272.33,385.97,269.39"/>
	<path class="st2" d="M323.44,285.46c0.6,1.54,0.35,2.81-0.75,3.81c-1,1-1.84,1.22-2.54,0.67c-3.24-2.44-8.12-5.03-14.64-7.77
		c-5.98-2.54-10.11-3.91-12.4-4.11c-1.89-0.1-3.19-1.1-3.89-2.99c-0.75-1.94-0.2-3.71,1.64-5.3c2.64-2.39,5.83-3.76,9.56-4.11
		c2.49-0.25,6.55,1.97,12.18,6.65C318.33,277.09,321.94,281.47,323.44,285.46"/>
	<path class="st1" d="M319.18,325.13c0.5,4.83,2.09,9.44,4.78,13.82c-8.52-2.04-16.64-5.65-24.36-10.83
		c-7.37-4.93-13.5-10.66-18.38-17.18C292.68,317.26,305.33,321.99,319.18,325.13"/>
	<path class="st1" d="M376.04,333.42l1.34-5.9c11.21-1.69,21.57-4.51,31.08-8.44c-10.21,10.46-21.57,17.13-34.07,20.02
		L376.04,333.42"/>
	<path class="st0" d="M143.15,246.08c2.59,1.3,6.1,3.34,10.53,6.13l10.01,9.94c6.28,6.53,10.81,10.83,13.6,12.93
		c-4.73-1.05-10.98-1.05-18.75,0c-7.62,1-13.05,2.47-16.29,4.41c-0.7,0.45-1.49,1.17-2.39,2.17l-4.71-3.66l-2.39,5.08
		c-1.79,2.79-4.61,5.53-8.44,8.22c-4.18,2.94-7.85,4.43-10.98,4.48c-1.64,0-2.91-0.32-3.81-0.97c-2.79-1.89-3.61-6.53-2.47-13.9
		c0.85-5.63,2.69-12.2,5.53-19.72c1.89-5.08,3.41-8.64,4.56-10.68c0.95-1.59,3.16-3.09,6.65-4.48c2.89-1.15,6.18-2.07,9.86-2.76
		C135.6,242.89,138.77,243.84,143.15,246.08"/>
	<path class="st0" d="M109.53,294.79c0.9,0.65,2.17,0.97,3.81,0.97c-1.39,6.38-2.64,10.11-3.74,11.21l-5.3,4.71
		c-1.99,1.39-4.11,2.39-6.35,2.99c-2.84,0.8-5.21,0.6-7.1-0.6c-1.89-1.25-3.06-3.26-3.51-6.05c-0.95-5.68-0.97-11.8-0.07-18.38
		c1.1-8.42,3.36-14.97,6.8-19.65c1.59-2.24,4.58-4.23,8.97-5.98c3.14-1.3,6.33-2.24,9.56-2.84c-2.84,7.52-4.68,14.1-5.53,19.72
		C105.92,288.27,106.74,292.9,109.53,294.79"/>
	<path class="st0" d="M81.88,293.23c0.75-1.54,1.67-2.54,2.76-2.99l2.62-0.6c-0.9,6.57-0.87,12.7,0.07,18.38
		c0.45,2.79,1.62,4.81,3.51,6.05c1.89,1.2,4.26,1.39,7.1,0.6c-1.25,3.59-3.56,6.5-6.95,8.74c-3.04,1.94-6.23,2.96-9.56,3.06
		c-3.98,0.1-6.53-1.2-7.62-3.89c-1.1-2.54-0.32-7.7,2.32-15.47C77.97,301.79,79.89,297.16,81.88,293.23"/>
	<path class="st1" d="M230.72,508.26v-0.6c13.55,7.82,28.04,13.05,43.48,15.69c15.79,2.69,30.73,2.34,44.83-1.05
		c1.25,4.08,3.49,7.92,6.72,11.51c2.29,2.54,4.91,4.78,7.85,6.72c1.25,0.85,2.27,2.64,3.06,5.38c0.75,2.69,1.12,5.73,1.12,9.12
		c0,2.19-3.59,11.26-10.76,27.2l-0.3,0.67c-23.86-8.97-49.16-13.32-75.91-13.08c0.95-1.3,2.32-3.86,4.11-7.7l2.99-6.13
		c-5.48-4.48-11.58-13.27-18.31-26.37C233.53,517.87,230.57,510.75,230.72,508.26"/>
	<path class="st1" d="M420.42,591.64c-0.6-4.58-0.7-7.94-0.3-10.09c0.35-2.04,1.42-4.41,3.21-7.1l5.98-8.44
		c5.83-8.92,9.76-19.72,11.8-32.43c14.64,7.32,30.26,9.79,46.85,7.4c17.33-2.54,30.98-9.81,40.94-21.82
		c0.9,9.21,0.67,16.06-0.67,20.55c-1.99,6.67-5.73,14.22-11.21,22.64l-16.74,24.36c0.7,2.24,1.89,4.93,3.59,8.07
		c1.94,3.59,4.01,6.7,6.2,9.34c-29.39-5.88-58.3-5.13-86.74,2.24C421.99,601.28,421.02,596.37,420.42,591.64"/>
	<path class="st0" d="M105.34,326.03c-0.35,4.88-1.07,8.62-2.17,11.21c-1.39,3.24-4.31,5.93-8.74,8.07
		c-4.53,2.14-8.12,2.54-10.76,1.2c-1.25-0.65-2.02-3.31-2.32-7.99c-0.25-3.39-0.22-7.4,0.07-12.03c3.34-0.1,6.53-1.12,9.56-3.06
		c3.39-2.24,5.7-5.16,6.95-8.74c1.94-0.5,4.08-1.59,6.43-3.29C105.57,314.37,105.89,319.25,105.34,326.03"/>
	<path class="st1" d="M285.41,385.13c-5.93,6.18-15.74,13.15-29.44,20.92c-14.3,8.12-24.36,12.1-30.18,11.95
		c-3.98-0.1-11.23-4.01-21.74-11.73c-8.92-6.53-19.08-14.94-30.48-25.25c16.59,5.73,32.78,8.34,48.56,7.85
		c17.68-0.55,32.97-5.03,45.88-13.45l0.37,1.49c1.89-0.55,3.49-1.47,4.78-2.76l3.66,7.32c0.6-0.05,1.57-0.9,2.91-2.54l2.17-3.36
		L285.41,385.13"/>
	<path class="st1" d="M489.16,174.95l1.79,3.96c0.4,2.84,0.25,5.08-0.45,6.72c-0.35,0.85-2.29,2.24-5.83,4.18
		c-4.13,2.34-8.02,3.81-11.66,4.41l-3.51,0.3c-1.1,0-4.98-1.49-11.66-4.48c-6.92-3.14-11.16-5.45-12.7-6.95
		c8.07,2.34,15.64,2.96,22.71,1.87C475.78,183.72,482.88,180.38,489.16,174.95"/>
	<path class="st1" d="M508.06,162.25c1.2,1.49,4.13,2.54,8.82,3.14c-3.09,2.59-6.48,5.21-10.16,7.85c-4.48,3.24-7.72,5.25-9.71,6.05
		c-2.59-5.28-4.98-10.76-7.17-16.44c3.14,1.54,6.4,2.39,9.79,2.54l4.56-0.97L508.06,162.25"/>
	<path class="st1" d="M469.51,300.92l1.87-1.27l2.17-1.79l-3.36-2.99c-2.24-1.84-3.59-3.09-4.03-3.74l2.91-5.01l6.95-2.84
		c2.19,10.16,6.67,19.2,13.45,27.12c6.23,7.32,14.15,13.42,23.76,18.31c-16.04,7.57-31.31,13.7-45.8,18.38l-2.39-2.17
		c-1.2-1.44-1.92-2.76-2.17-3.96l6.05-0.3l-1.42-3.81c-0.9-2.44-1.3-3.94-1.2-4.48l5.75-0.37l6.87-0.75
		c-4.88-6.38-7.7-10.34-8.44-11.88c0.65,0,2.66-0.72,6.05-2.17l-3.36-3.36l-3.44-3.44l5.9-3.36l-3.36-3.14
		C470.43,302.47,469.51,301.47,469.51,300.92"/>
	<path class="st5" d="M427.81,124.44c0.45,2.74,0.07,8.92-1.12,18.53c-1.1,8.57-2.59,18.28-4.48,29.14
		c-2.94-5.23-7.4-7.67-13.37-7.32c-5.63,0.35-11.93,3.09-18.9,8.22c4.48-7.92,11.36-17.71,20.62-29.36
		C419.27,132.69,425.02,126.29,427.81,124.44"/>
	<path class="st5" d="M259.78,130.72c3.29,1.15,8.19,5.03,14.72,11.66c5.73,5.83,11.58,12.6,17.56,20.32
		c-5.53,0.75-9.84,3.79-12.93,9.12c-2.79,4.88-4.48,11.43-5.08,19.65c-3.64-10.76-6.95-22.41-9.94-34.97
		C260.97,143.4,259.53,134.8,259.78,130.72"/>
	<path class="st2" d="M386.42,383.11l-4.56,0.15v-1.57C383.06,382.39,384.58,382.86,386.42,383.11"/>
	<path class="st2" d="M436.18,348.59l1.05,0.3l-1.05,0.07V348.59"/>
	<path class="st6" d="M434.61,349.19c-4.38,0.8-7.6,0.45-9.64-1.05c0.4,0.3,2.99-0.2,7.77-1.49l9.26-2.69
		c-2.74-1.49-4.43-3.06-5.08-4.71l7.17-0.82l7.85-0.82l-1.79-2.24l-1.79-2.32l5.16-0.75c2.29-0.2,3.96-0.65,5.01-1.34l-3.66-2.24
		c-1.69-0.8-2.81-1.64-3.36-2.54l10.16-6.65l2.02-1.42c1.1-0.85,1.69-1.25,1.79-1.2c-1.2-0.5-3.14-1.05-5.83-1.64l-5.83-1.72
		c1-1,2.79-1.87,5.38-2.62c2.64-0.85,4.41-1.62,5.3-2.32c-1.34-1.39-3.26-2.64-5.75-3.74l-6.43-2.91c0.1-0.65,0.77-1.49,2.02-2.54
		l2.69-2.17l1.57-1.34l1.34-1.57l-2.62-1.42c-1-0.55-1.34-1.12-1.05-1.72c0.2-0.5,1.25-1.07,3.14-1.72l3.74-1.2l-0.97-1.42
		c-0.45-0.6-0.72-1.1-0.82-1.49v-1.49v-1.49l-1.87-2.47l-0.82,0.97l-0.82,1.2l-3.14,0.15c-0.05-0.45,0.07-1,0.37-1.64l0.67-1.57
		l-2.99-0.22l-2.76-0.82c0.5-1,1.49-2.42,2.99-4.26l1.2-1.79l-2.99-0.97l-2.91-1.34l2.17-1.42l2.17-1.27l-3.14-2.84l-1.64-1.57
		c-0.1-0.8,0.57-1.79,2.02-2.99c1.59-1.39,2.47-2.39,2.62-2.99c-0.7-0.1-1.79-0.57-3.29-1.42l-4.86-2.24
		c-2.19-1.05-3.31-1.77-3.36-2.17c-0.05-0.45,0.62-1.54,2.02-3.29c1.49-1.79,2.64-2.44,3.44-1.94c0.6,0.35,0.85,1.17,0.75,2.47
		c-0.1,1.25-0.45,1.84-1.05,1.79l7.47,0.45c3.29,0.15,5.21,0.47,5.75,0.97c-0.6,1.2-2.17,3.31-4.71,6.35
		c-2.39,2.84-3.61,4.38-3.66,4.63l11.88-0.15l-2.99,4.78l1.72,1.87l1.05,1.42l-1.64,2.02l-2.02,1.94l3.81,0.67
		c1.84,0.15,2.86,0.62,3.06,1.42c0.3,1-0.95,3.24-3.74,6.72l0.67,1.42l7.62-0.52l-1.34,2.39l-2.91,5.01
		c0.45,0.65,1.79,1.89,4.03,3.74l3.36,2.99l-2.17,1.79l-1.87,1.27c0,0.55,0.92,1.54,2.76,2.99l3.36,3.14l-5.9,3.36l3.44,3.44
		l3.36,3.36c-3.39,1.44-5.4,2.17-6.05,2.17c0.75,1.54,3.56,5.5,8.44,11.88l-6.87,0.75l-5.75,0.37c-0.1,0.55,0.3,2.04,1.2,4.48
		l1.42,3.81l-6.05,0.3c0.25,1.2,0.97,2.52,2.17,3.96l2.39,2.17l-5.08,1.57l-4.33,0.9l0.07,0.3l1.79,5.23
		c0.95,2.44,1.64,3.89,2.09,4.33l-5.01,0.22l-5.3-0.52c-0.1,0.45-0.02,1.84,0.22,4.18c0.25,2.34,0.47,3.69,0.67,4.03
		c-3.34-0.65-5.58-1.34-6.72-2.09l-0.22,0.22l-6.5,7.7c-2.49-1.59-4.31-2.91-5.45-3.96l-3.74,1.27l1.64,4.86
		c0.6,1.99,0.82,3.06,0.67,3.21l-6.35-0.3c1.44,4.98,2.17,8.07,2.17,9.26c0,0.55-2.64-0.25-7.92-2.39c0.15,2.84,0.37,5.38,0.67,7.62
		c-0.45,0-1.74-0.57-3.89-1.72l-4.26-2.54c-0.3,1.05-0.45,3.46-0.45,7.25c-0.7-0.3-1.64-0.87-2.84-1.72l-2.54-1.49
		c-0.1,1.94-0.4,3.69-0.9,5.23c-0.4,0.05-1.3-0.4-2.69-1.34l-3.21-2.32c-0.5,2.14-0.95,5.13-1.34,8.97
		c-0.65-0.25-2.27-1.17-4.86-2.76l-3.96-2.69c-0.55,0.9-1.47,3.19-2.76,6.87l-2.09,5.98l-4.48-3.74c-1.79-1.69-2.94-3.04-3.44-4.03
		c-0.8,0.5-1.99,2.24-3.59,5.23c-0.85-0.65-2.09-2.09-3.74-4.33l-2.47-3.74c-1.59,2.14-3.29,4.03-5.08,5.68l-3.66-3.44l-2.02-2.47
		c-0.95,2.04-2.19,5.33-3.74,9.86c-1.54-1.39-2.89-2.94-4.03-4.63l-2.62-4.18l-5.3,5.6l-3.74,4.33c-0.8-0.6-1.89-2.59-3.29-5.98
		l-1.94-5.6l-4.63,2.47l-2.84-4.33l-4.56,3.44l-4.18,2.99c-0.45-0.05-0.82-1.59-1.12-4.63c-0.3-3.24-0.77-5.16-1.42-5.75
		c-0.35,0.1-1.42,0.87-3.21,2.32c-1.69,1.39-2.76,2.09-3.21,2.09c-0.4-0.15-0.82-1.25-1.27-3.29l-0.6-3.74
		c-0.5,0.05-2.32,0.92-5.45,2.62c-3.14,1.64-4.93,2.49-5.38,2.54c-0.55-1.1-0.17-3.46,1.12-7.1l2.17-5.83
		c-0.95-0.6-2.17-1.12-3.66-1.57l-2.47-0.82l-2.99,3.51l-2.24,2.76l-4.03-11.13l-2.17,3.36c-1.34,1.64-2.32,2.49-2.91,2.54
		l-3.66-7.32c-1.3,1.3-2.89,2.22-4.78,2.76l-0.75-4.11c-0.4-2.59-0.82-4.26-1.27-5.01l-5.6,3.06l-6.35,2.76
		c-0.15-0.45,0.15-2.47,0.9-6.05l1.64-7.77l-8.67,0.82l2.39-6.87l-2.91,0.6l-2.84,0.37l0.9-4.26c0.45-1.84,0.87-3.16,1.27-3.96
		h-0.37l-5.16-0.52l-5.53-1.2l3.59-5.3l3.96-4.63l-2.09-1.2l-1.94-1.49l3.21-3.74c-2.74-0.8-4.38-1.74-4.93-2.84
		c1.54-1.99,3.24-3.79,5.08-5.38c-2.34-1.25-3.98-2.54-4.93-3.89l2.24-2.76c1.39-1.54,2.57-2.71,3.51-3.51l-2.17-3.21l-3.51-4.71
		c5.68-1.69,9.84-2.42,12.48-2.17l-0.07-1.87c-3.74-1.59-6.57-3.16-8.52-4.71l2.99-3.06l3.59-3.74l-1.64-0.6
		c-1.25-0.55-2.39-1.44-3.44-2.69c0.65-0.95,1.44-1.72,2.39-2.32c1.15-0.7,2.14-0.92,2.99-0.67c0.3,0.1,0.37-0.2,0.22-0.9
		c-0.2-0.75-0.12-1.05,0.22-0.9l3.06,2.09l2.99,2.39l-2.62,2.84l1.79,1.12l1.72,1.2l-1.87,1.87c-0.95,0.75-1.57,1.37-1.87,1.87
		l2.76,1.49c1.25,0.75,1.92,1.39,2.02,1.94l-3.44,1.42c0.2-0.1,0.55,0.1,1.05,0.6l0.75,0.9c1,1.3,1.74,2.04,2.24,2.24l-4.18,1.94
		l-4.41,1.72l5.16,4.63c-0.25-0.2-1.22,0.87-2.91,3.21l-3.59,5.3l3.81,0.37c1.74,0.1,2.94,0.4,3.59,0.9l-2.47,3.59
		c-0.9,1.39-1.52,2.71-1.87,3.96l4.11-0.15c0,1.89-0.45,3.79-1.34,5.68l4.03,0.22l3.81,0.15l-7.99,7.85l3.89,0.07l7.4-0.6
		c-0.3,1.44-0.52,3.16-0.67,5.16l-0.52,4.71l4.48-0.6l4.48-0.67c-0.3,3.04-1.05,6.7-2.24,10.98l5.75-2.84l5.6-3.66l-0.45,5.53
		c0,2.24,0.15,3.84,0.45,4.78l3.81-0.37c1.94-0.4,3.01-0.85,3.21-1.34l0.67-1.27c0.3-0.85,0.55-1.05,0.75-0.6
		c2.49-0.85,5.11-1.54,7.85-2.09l6.05-0.52l-2.47,2.62l-3.06,2.39l5.53,1.05l-1.12,3.74c-0.6,1.54-0.87,2.81-0.82,3.81l5.08-0.3
		l0.07,3.44c0.2,1.49,0.55,2.49,1.05,2.99c1.2-1.2,2.17-1.97,2.91-2.32c-0.2,0.15,0,1.27,0.6,3.36c0.55,2.09,0.95,3.26,1.2,3.51
		l2.84-1.94c1.44-1.05,2.39-1.49,2.84-1.34c-0.05,0.7,0.22,2.24,0.82,4.63c0.65,2.69,1.25,4.16,1.79,4.41
		c2.59-4.08,5.03-6.97,7.32-8.67l2.39,6.13c1.1,2.49,2.22,4.38,3.36,5.68l2.62-2.62c1.05-1.3,1.82-2.91,2.32-4.86
		c1.94,3.84,3.98,7.2,6.13,10.09c0.45-0.75,1.12-2.74,2.02-5.98c0.85-2.99,1.62-4.93,2.32-5.83c0.7,1.34,2.37,3.54,5.01,6.57
		c2.84,3.24,4.86,5.13,6.05,5.68l3.96-11.06c0.55-0.05,2.07,1.07,4.56,3.36l5.3,4.48c0.05-1.3,0.47-3.74,1.27-7.32l10.76,7.17
		c0-0.75,0.32-2.02,0.97-3.81l1.05-4.71l4.03,1.79c1.94,1,3.29,1.59,4.03,1.79c0.2-0.55,0.3-1.69,0.3-3.44l-0.07-4.56l4.48,2.24
		l4.18,2.39v-5.16c0.1-2.29,0.5-3.91,1.2-4.86c3.64,2.19,6.87,3.86,9.71,5.01l-0.97-10.68c0.55,0.45,3.66,1.39,9.34,2.84
		c-0.95-1.69-1.34-3.59-1.2-5.68c3.09,1.49,5.45,2.19,7.1,2.09c-0.25-2.69-0.32-4.51-0.22-5.45c0.3,0,1.44-1.72,3.44-5.16l3.14-5.16
		L434.61,349.19"/>
	<path class="st1" d="M132.76,283.06l2.39-5.08l4.33,3.29c-10.11,17.98-14.97,27.57-14.57,28.77c2.14,4.03,5.9,6.23,11.28,6.57
		c5.08,0.3,9.12-1,12.1-3.89c0.5,4.68,1.12,8.24,1.87,10.68c0.9,2.89,2.14,4.71,3.74,5.45c1.74,3.29-0.62,6.5-7.1,9.64
		c-6.53,3.14-13.08,4.11-19.65,2.91l-0.45-0.37c-1.39-1.1-3.64-3.74-6.72-7.92c-2.69-3.59-4.88-5.75-6.57-6.5
		c-2.54-1.1-5.23-1.3-8.07-0.6c0.55-6.77,0.22-11.66-0.97-14.64l5.23-4.41c1.1-1.1,2.34-4.83,3.74-11.21
		c3.14-0.05,6.8-1.54,10.98-4.48C128.16,288.59,130.97,285.85,132.76,283.06"/>
	<path class="st1" d="M452.25,149.85c3.79,3.24,9.46,4.51,17.04,3.81c6.67-0.65,10.53-1.82,11.58-3.51
		c3.74,3.98,9.36,5.98,16.89,5.98c6.53-0.05,10.44-0.9,11.73-2.54c2.44,3.29,6.53,5.25,12.25,5.9c5.43,0.6,8.62-0.07,9.56-2.02
		c1.84,2.09,3.59,3.41,5.23,3.96c2.29,0.75,5.01,0.3,8.14-1.34l-1.57,1.87l-4.48,4.63c-1.74,1.44-3.81,1.84-6.2,1.2
		c-2.24-0.65-3.76-1.84-4.56-3.59l-0.3,0.37c-0.55,0.6-1.89,0.97-4.03,1.12l-6.65-0.3c-4.68-0.6-7.62-1.64-8.82-3.14l-3.89,2.17
		l-4.56,0.97c-3.39-0.15-6.65-1-9.79-2.54c-0.8-0.4-1.94-1.1-3.44-2.09l-2.54,1.57c-3.09,1.74-6.3,2.74-9.64,2.99h-0.3
		c-3.04,0.15-5.98-0.3-8.82-1.34c-2.39-0.9-4.23-2.02-5.53-3.36C458.17,159.21,455.73,155.63,452.25,149.85"/>
	<path class="st1" d="M370.28,344.41c-2.34,4.88-5.75,9.31-10.24,13.3c-4.33,3.93-8.12,6.05-11.36,6.35
		c-3.54,0.4-8.04-2.27-13.52-7.99c-5.03-5.23-7.57-8.89-7.62-10.98c6.48,5.28,13.57,7.8,21.29,7.55
		C356.31,352.43,363.46,349.69,370.28,344.41"/>
	<path class="st7" d="M595.03,332.82c9.26-1.15,19.08-3.79,29.44-7.92c10.86-4.38,18.31-8.89,22.34-13.52
		c1.15,3.79,0.6,8.44-1.64,13.97c-3.09,7.62-8.97,13.1-17.63,16.44c-5.18,1.94-10.63,2.22-16.36,0.82
		C604.99,341.07,599.61,337.81,595.03,332.82"/>
	<path class="st8" d="M617.59,284.19c8.37,0,15.52,2.86,21.44,8.59c5.98,5.83,8.97,12.88,8.97,21.14c0,8.77-3.06,16.09-9.19,21.97
		c-5.93,5.58-12.98,8.37-21.14,8.37c-8.57,0-15.76-2.91-21.59-8.74c-5.78-5.88-8.67-13.08-8.67-21.59c0-8.67,3.09-15.81,9.26-21.44
		l1.27-0.22c0.4-0.05,0.67,0.07,0.82,0.37c-2.89,2.59-5.18,5.75-6.87,9.49c-1.74,3.84-2.62,7.77-2.62,11.8
		c0,7.67,2.81,14.35,8.44,20.02c5.63,5.68,12.25,8.52,19.87,8.52c7.77,0,14.45-2.71,20.02-8.14c5.68-5.53,8.52-12.33,8.52-20.4
		c0-7.57-2.84-14.15-8.52-19.72c-5.68-5.58-12.35-8.37-20.02-8.37c-6.48,0-12,1.69-16.59,5.08l-0.97-1.42
		C604.91,285.95,610.77,284.19,617.59,284.19"/>
	<path class="st8" d="M617.59,287.85c7.27,0,13.45,2.52,18.53,7.55c5.03,5.03,7.55,11.21,7.55,18.53c0,7.27-2.52,13.4-7.55,18.38
		c-5.03,4.93-11.21,7.4-18.53,7.4c-7.32,0-13.5-2.47-18.53-7.4c-5.03-4.98-7.55-11.11-7.55-18.38c0-7.82,2.61-14.2,7.85-19.13
		l0.52,0.67l0.67,0.67c-2.39,2.19-4.21,4.83-5.45,7.92c-1.3,3.04-1.94,6.33-1.94,9.86c0,6.57,2.42,12.25,7.25,17.04
		c4.83,4.78,10.56,7.17,17.18,7.17c6.62,0,12.35-2.39,17.18-7.17c4.83-4.78,7.25-10.46,7.25-17.04c0-6.62-2.42-12.35-7.25-17.18
		c-4.83-4.83-10.56-7.25-17.18-7.25c-5.28,0-9.91,1.47-13.9,4.41l-0.6-0.67c-0.25-0.15-0.37-0.4-0.37-0.75
		C607.26,289.39,612.21,287.85,617.59,287.85"/>
	<path class="st8" d="M608.4,323.34c-2.69-2.59-4.03-5.73-4.03-9.41c0-3.24,0.85-5.95,2.54-8.14l1.05,1.42
		c-1.44,2.09-2.17,4.33-2.17,6.72c0,3.14,1.2,5.9,3.59,8.29c2.34,2.34,5.08,3.51,8.22,3.51c3.64,0,6.57-1.27,8.82-3.81
		c1.99-2.29,2.99-4.96,2.99-7.99c0-3.49-1.22-6.35-3.66-8.59c-2.29-2.14-5.01-3.21-8.14-3.21c-2.19,0-4.21,0.6-6.05,1.79l-0.75-0.67
		l-0.45-0.45c2.19-1.39,4.61-2.09,7.25-2.09c3.84,0,7.05,1.34,9.64,4.03c2.49,2.59,3.74,5.65,3.74,9.19c0,3.84-1.37,7.02-4.11,9.56
		c-2.59,2.44-5.68,3.66-9.26,3.66C614.05,327.15,610.99,325.88,608.4,323.34"/>
	<path class="st8" d="M373.72,176.82c-6.28-2.74-14.82-4.03-25.63-3.89c-11.9,0.15-21.37,2.19-28.39,6.13l-2.62,0.07
		c0.45-1.25,1.42-2.27,2.91-3.06c7.77-4.18,16.89-6.35,27.35-6.5c9.66-0.2,18.36,1.3,26.08,4.48c1.94,0.8,3.21,1.79,3.81,2.99
		C377.78,178.19,376.61,178.11,373.72,176.82"/>
	<path class="st8" d="M436.48,106.36c1.3,0.75,1.92,3.44,1.87,8.07c-0.15,10.96-1.84,28.87-5.08,53.72
		c-2.74,21.12-5.23,37.81-7.47,50.06c2.04,10.31,3.49,18.48,4.33,24.51c1.1,7.62,1.64,14.47,1.64,20.55
		c0,18.38-4.66,34.44-13.97,48.19c-10.66,15.79-25.88,25.6-45.65,29.44c-0.3,0.05-0.27-0.37,0.07-1.27c0.35-0.9,0.65-1.37,0.9-1.42
		c18.33-4.93,32.3-14.49,41.92-28.69c8.77-12.95,13.15-28.37,13.15-46.25c0-12.8-1.82-28.34-5.45-46.62
		c1.69-8.92,4.16-25.08,7.4-48.49c3.89-28.04,5.83-46.2,5.83-54.47c0-3.04-0.42-4.66-1.27-4.86c-0.7-0.15-2.22,0.67-4.56,2.47
		c-8.57,6.33-19.38,16.39-32.43,30.18c-14.54,15.29-23.11,26.4-25.7,33.32c-0.15,0.35-0.87,0.35-2.17,0
		c-1.34-0.35-1.94-0.67-1.79-0.97c4.28-8.47,13.37-20.02,27.27-34.67c13.25-14,24.23-23.96,32.95-29.89
		C432.35,106.49,435.09,105.52,436.48,106.36"/>
	<path class="st8" d="M323.36,175.47l-1.34,1.27l-1.87,0.37c-5.43-9.17-15.49-20.55-30.18-34.14
		c-12.95-11.9-23.83-20.65-32.65-26.23c-2.69-1.64-4.48-2.39-5.38-2.24c-0.95,0.15-1.42,1.3-1.42,3.44
		c0.1,11.01,2.64,27.07,7.62,48.19c4.78,20.42,9.99,37.96,15.62,52.6l-0.3,1.87c-2.94,17.33-4.48,30.28-4.63,38.85
		c-0.15,13.75,2.19,26.92,7.02,39.52c3.34,8.67,9.54,16.64,18.6,23.91c8.97,7.22,18.75,12.15,29.36,14.79l0.75,1.49
		c0.3,0.85,0.3,1.25,0,1.2c-12-2.74-22.76-7.75-32.28-15.02c-9.71-7.42-16.41-15.94-20.1-25.55c-4.73-12.2-6.9-25.4-6.5-39.6
		c0.25-8.27,1.92-21.62,5.01-40.05c-6.62-17.23-12.23-36.81-16.81-58.73c-4.08-19.68-5.98-33.87-5.68-42.59
		c0.15-4.03,0.82-6.38,2.02-7.02c1.39-0.7,4.36,0.22,8.89,2.76c8.82,5.03,19.7,13.55,32.65,25.55
		C305.6,152.99,316.14,164.77,323.36,175.47"/>
	<path class="st8" d="M426.69,126.98c-5.08,4.78-12.15,13.2-21.22,25.25c-10.16,13.5-16.11,23.09-17.86,28.77
		c4.28,2.04,8.84,4.96,13.67,8.74c5.63,4.38,10.04,8.79,13.22,13.22c2.24-7.72,4.81-20.3,7.7-37.73
		c3.04-18.23,4.56-30.81,4.56-37.73L426.69,126.98 M427.14,123.4c0.65-0.4,1.1-0.52,1.34-0.37l0.52,1.2
		c0.7,4.53-0.42,16.74-3.36,36.61c-2.79,18.98-5.4,33.17-7.85,42.59c-0.75,2.79-1.49,4.16-2.24,4.11c-0.45,0-1.42-1.05-2.91-3.14
		c-3.04-4.18-7.25-8.37-12.63-12.55c-4.53-3.54-8.89-6.35-13.08-8.44c-1.59-0.8-2.44-1.47-2.54-2.02c-0.05-0.55,0.42-1.97,1.42-4.26
		c3.24-7.27,10.34-17.76,21.29-31.46C417.13,133.06,423.8,125.64,427.14,123.4"/>
	<path class="st8" d="M304.53,184.14c-1.84-5.23-7.99-14.17-18.45-26.82c-10.91-13.3-19.25-21.52-25.03-24.66
		c0.25,6.62,2.64,18.4,7.17,35.34c4.58,16.94,8.62,29.06,12.1,36.39c2.39-3.19,6.1-6.95,11.13-11.28
		C296.84,188.52,301.2,185.54,304.53,184.14 M258.58,130.65c0-1.1,0.55-1.47,1.64-1.12c5.93,2.14,15.09,10.71,27.5,25.7
		c11.95,14.44,18.45,24.26,19.5,29.44c0.15,0.7-0.12,1.17-0.82,1.42c-2.94,0.85-7.37,3.91-13.3,9.19
		c-5.03,4.48-8.64,8.14-10.83,10.98l-1.79,2.62c-0.65,0.8-1.15,0.9-1.49,0.3c-3.59-6.62-7.99-20-13.22-40.12
		C260.58,149.03,258.19,136.22,258.58,130.65"/>
	<path class="st8" d="M328.74,288.97c1.64-2.04,2.74-2.91,3.29-2.62c0.6,0.35,0.07,1.72-1.57,4.11c-2.09,3.19-4.23,7.6-6.43,13.22
		c-2.64,6.87-3.91,12.45-3.81,16.74c0.2,7.82,3.49,16.64,9.86,26.45c6.53,10.11,12.63,15.32,18.31,15.62
		c4.93,0.25,10.76-4.48,17.48-14.2c6.77-9.66,10.58-18.78,11.43-27.35c0.4-4.08-0.9-9.59-3.89-16.51
		c-2.44-5.58-5.03-10.16-7.77-13.75c-1.64-2.19-2.22-3.51-1.72-3.96c0.5-0.45,1.62,0.35,3.36,2.39c2.89,3.29,5.75,7.89,8.59,13.82
		c3.59,7.47,5.13,13.55,4.63,18.23c-0.85,8.77-4.93,18.28-12.25,28.54c-7.47,10.41-14.12,15.49-19.95,15.24
		c-6.33-0.35-13.12-5.8-20.4-16.36c-7.12-10.36-10.81-19.75-11.06-28.17c-0.1-4.58,1.37-10.49,4.41-17.71
		C323.81,296.64,326.3,292.06,328.74,288.97"/>
	<path class="st8" d="M435.44,221.42l-0.3,2.09l-1.42,3.14l-1.2,2.47l8.22-2.17c0.7-0.2,1.17-0.2,1.42,0l0.3,1.12l-0.75,3.06
		l-1.87,6.13c1.89,0.95,3.98,1.42,6.28,1.42c0.7,0.05,1.12,0.2,1.27,0.45l-0.07,1.12l-0.97,1.49l-1.57,1.94l2.84,0.97
		c0.95,0.4,1.49,0.8,1.64,1.2c0.15,0.4-0.02,0.97-0.52,1.72l-1.2,1.64l5.75,0.07l5.75,0.37c0.9,0.35,1.42,0.65,1.57,0.9l-0.22,1.2
		c-0.65,1.25-3.21,4.36-7.7,9.34l10.61-0.45c0.8-0.05,1.27,0.07,1.42,0.37l-0.22,1.2l-3.66,4.41l2.32,2.09
		c0.5,0.6,0.72,1.1,0.67,1.49l-0.45,0.97l-1.34,1.12l-1.49,1.05l1.57,0.07l4.63,0.6c0.8,0.3,1.05,1.07,0.75,2.32l-1.57,3.66
		l-2.62,4.11l-1.64-2.91c1.99-2.39,2.99-3.93,2.99-4.63v-0.07l-2.69-0.6c-1.69-0.1-2.91-0.37-3.66-0.82c-0.5-0.3-0.75-0.6-0.75-0.9
		c-0.05-0.2,0.12-0.52,0.52-0.97l3.06-3.14l-2.09-2.32c-0.55-0.45-0.62-0.97-0.22-1.57l1.87-2.91l-9.79,0.15
		c-0.95-0.05-1.39-0.35-1.34-0.9c0-0.45,0.35-1.12,1.05-2.02l3.21-3.96l3.74-4.78l-11.73-0.82c-0.9-0.05-1.37-0.27-1.42-0.67
		c-0.05-0.3,0.15-0.72,0.6-1.27c1-1.39,1.37-2.09,1.12-2.09c0-0.4-1.1-0.87-3.29-1.42c-1.25-0.3-1.34-1.05-0.3-2.24l1.64-2.24
		c-3.19-0.35-5.4-1.05-6.65-2.09c-0.45-0.4-0.57-0.87-0.37-1.42c1-2.29,1.72-4.76,2.17-7.4l-8.14,1.57
		c-0.95,0.1-1.42-0.37-1.42-1.42l0.97-2.76l1.2-2.84c-2.19,0.5-3.96,1.22-5.3,2.17c-0.3,0.2-0.57,0-0.82-0.6
		c-0.25-0.6-0.22-1,0.07-1.2c2.84-1.84,5.38-3.06,7.62-3.66L435.44,221.42"/>
	<path class="st8" d="M431.62,370.03c-0.25-0.25,0.22-0.55,1.42-0.9l2.09-0.3l3.74,2.76l5.98-7.1c0.4-0.6,0.95-0.7,1.64-0.3
		c0.8,0.5,2.29,1.02,4.48,1.57c-0.35-2.44-0.52-4.56-0.52-6.35c0-1.3,0.55-1.77,1.64-1.42l7.92,0.45c-1.1-2.24-2.09-4.78-2.99-7.62
		c-0.45-1.54-0.15-2.37,0.9-2.47l7.1-1.64c-1.89-1.89-3.01-3.74-3.36-5.53v-0.9c0.1-0.25,0.4-0.42,0.9-0.52l4.63-0.3
		c-1.34-3.84-2.04-6.15-2.09-6.95c-0.05-0.95,0.35-1.42,1.2-1.42l10.39-0.75c-3.79-4.73-6.23-8.22-7.32-10.46
		c-0.35-0.8,0.02-1.39,1.12-1.79l3.89-1.42l-5.53-5.53c-0.6-0.75-0.45-1.37,0.45-1.87l4.48-2.54l-4.78-4.11
		c-0.55-0.65-0.82-1.2-0.82-1.64c0.05-0.45,0.35-0.87,0.9-1.27l2.76-1.94l-2.84-2.32l-3.14-2.84l-0.82-1.42
		c-0.05-0.35,0.07-0.77,0.37-1.27l2.84-4.78l-5.16,0.3c-0.75,0-1.25-0.32-1.49-0.97l-1.79-3.21l-3.96,5.23
		c-0.85,1.15-1.54,1.67-2.09,1.57c-0.6-0.1-0.65-0.77-0.15-2.02c0.4-1,1.37-2.52,2.91-4.56l2.17-2.84c0.3-0.4,0.65-0.6,1.05-0.6
		c1,0,2.27,1.77,3.81,5.3l6.72-0.82c1-0.15,1.57-0.05,1.72,0.3l-0.45,1.49l-3.89,6.65l7.7,5.98l0.37,0.75l-0.3,0.75l-4.71,2.91
		l2.62,1.94l2.69,2.09c1.1,1.3,1.17,2.22,0.22,2.76l-4.56,2.54l6.35,5.53c0.85,0.85,0.67,1.49-0.52,1.94l-5.83,1.72
		c1.15,1.89,3.81,5.35,7.99,10.39l0.82,1.49c0.1,0.55-0.25,0.9-1.05,1.05l-5.53,0.45l-6.2,0.22l1.64,4.71l0.9,3.06
		c-0.05,0.4-0.5,0.6-1.34,0.6l-4.93-0.37l2.09,2.84l1.87,1.64c1.69,1,1.37,1.89-0.97,2.69l-3.44,0.97l-4.03,0.9
		c0.85,2.54,1.97,5.23,3.36,8.07l0.45,1.49c-0.15,0.3-0.55,0.5-1.2,0.6l-3.89,0.15l-5.3-0.3c0.1,1.34,0.55,3.66,1.34,6.95l0.07,1.49
		l-1.57,0.15l-6.65-2.32l-3.21,4.41l-2.32,3.14l-1.12,0.9c-0.35,0.1-0.87-0.05-1.57-0.45C434.86,372.92,432.77,371.33,431.62,370.03
		"/>
	<path class="st8" d="M486.39,223.67l-15.47-28.47l1.2-0.75l2.02-0.75l15.99,29.66c10.41,19.53,16.61,30.98,18.6,34.37l2.62,5.53
		c1,2.54,1.49,4.51,1.49,5.9c0,2.19-0.42,3.59-1.27,4.18c-0.9,0.65-1.34-0.12-1.34-2.32c0-1.1-0.52-3.06-1.57-5.9l-2.76-6.13
		L486.39,223.67"/>
	<path class="st8" d="M507.98,262.22l1.34-0.07c0.75,0.3,1.05,0.62,0.9,0.97c-2.54,6.48-16.41,14.67-41.62,24.58l1.2-3.89
		c11.95-4.73,20.95-8.77,26.97-12.1C503.15,268.12,506.89,264.96,507.98,262.22"/>
	<path class="st8" d="M447.02,139.91l1.27,3.29l1.34,3.29c-0.35,2.94-1.17,5.95-2.47,9.04l-3.59,6.95l-2.09,3.96
		c-0.75,1.99-0.55,4.81,0.6,8.44c1.05,3.34,2.34,5.78,3.89,7.32c1.34,1.3,5.43,3.49,12.25,6.57c6.43,2.94,10.19,4.46,11.28,4.56
		c3.74,0.05,8.04-1.17,12.93-3.66c3.93-1.99,6.25-3.51,6.95-4.56c0.95-2.29,0.82-5.58-0.37-9.86c-1.25-4.58-3.01-7.35-5.3-8.29
		l-9.71-0.37c-5.33,0.35-9.24,1.05-11.73,2.09c-1.94,0.85-2.86,0.77-2.76-0.22c0.05-0.95,1.05-1.84,2.99-2.69
		c2.69-1.15,6.67-1.82,11.95-2.02c4.98-0.15,8.39,0.15,10.24,0.9c3.14,1.34,5.43,4.63,6.87,9.86c1.3,4.78,1.32,8.64,0.07,11.58
		c-0.55,1.39-3.16,3.46-7.85,6.2c-5.43,3.14-10.21,4.66-14.35,4.56c-1.44-0.05-5.68-1.57-12.7-4.56
		c-7.27-3.14-11.66-5.45-13.15-6.95c-2.14-2.14-3.76-5.03-4.86-8.67c-1.2-4.03-1.25-7.55-0.15-10.53c0.15-0.45,0.57-1.2,1.27-2.24
		l1.57-2.69C445.65,153.98,447.51,146.88,447.02,139.91"/>
	<path class="st8" d="M550.65,126.69c1.64,2.89,3.01,5.9,4.11,9.04c1.84,5.53,2.07,9.74,0.67,12.63c-1.34,2.89-3.91,6.57-7.7,11.06
		c-3.34,3.93-6.08,6.77-8.22,8.52c-2.09,1.79-4.66,2.22-7.7,1.27c-2.09-0.75-3.69-2.09-4.78-4.03c0.55-0.8,1.2-1.3,1.94-1.49
		c0.6,1.3,1.77,2.22,3.51,2.76c2.09,0.7,3.89,0.42,5.38-0.82c1.84-1.49,4.28-4.18,7.32-8.07c3.24-4.13,5.53-7.6,6.87-10.39
		c1.15-2.34,1.07-5.9-0.22-10.68c-0.95-3.54-2.04-6.38-3.29-8.52c-0.65-1.15-3.64-3.39-8.97-6.72l-0.82-4.11l6.57,4.56
		C548.28,123.92,550.05,125.59,550.65,126.69"/>
	<path class="st8" d="M534.21,145.89c0.5-2.54,1.1-3.74,1.79-3.59c0.75,0.15,0.9,1.49,0.45,4.03c-1.84,9.66-4.43,16.26-7.77,19.8
		c-0.9,1-2.94,1.54-6.13,1.64l-7.32-0.52c-1.59-0.25-3.19-0.8-4.78-1.64c-1.64-0.9-2.79-1.82-3.44-2.76
		c-0.1-0.1,0.17-0.45,0.82-1.05c0.6-0.6,0.97-0.75,1.12-0.45l1.72,1.2c1.3,0.6,3.01,1.07,5.16,1.42l7.25,0.52
		c2.04-0.1,3.24-0.35,3.59-0.75c1.64-1.79,3.19-4.43,4.63-7.92C532.59,152.64,533.56,149.32,534.21,145.89"/>
	<path class="st8" d="M532.49,103.08c4.13,3.09,6.7,7.55,7.7,13.37c0.5,3.04,0.55,7.1,0.15,12.18c-0.2,1.99-0.7,3.19-1.49,3.59
		c-0.8,0.35-1.1-0.47-0.9-2.47c1-11.16-1.37-19.23-7.1-24.21l-7.17-1.05c-4.58-0.65-7.05-1.25-7.4-1.79l-4.78-4.86
		c-3.09-2.79-5.53-4.58-7.32-5.38c-0.95-0.4-4.23-0.4-9.86,0l-8.52,0.37c-5.13-4.53-8.57-7.2-10.31-7.99l-7.17-0.22
		c-3.34,0.5-5.6,1.17-6.8,2.02c-1.44,1.2-4.71,6.95-9.79,17.26c-5.63,11.36-8.32,19-8.07,22.94c0.2,3.69,2.64,9.76,7.32,18.23
		c4.08,7.47,7.25,12.38,9.49,14.72c2.04,2.14,5.13,3.51,9.26,4.11c5.53,0.85,10.76-0.47,15.69-3.96c1.89,0.7,2.64,1.17,2.24,1.42
		c-5.33,4.03-11.26,5.75-17.78,5.16c-5.43-0.5-9.46-2.12-12.1-4.86c-2.34-2.44-5.58-7.5-9.71-15.17c-4.68-8.67-7.15-14.99-7.4-18.98
		c-0.25-4.28,2.39-12.45,7.92-24.51c5.18-11.26,8.72-17.63,10.61-19.13c1.54-1.15,4.38-1.99,8.52-2.54l9.04,0.3
		c1.94,0.9,5.28,3.81,10.01,8.74l8.97-1.42c4.88-0.5,8.02-0.45,9.41,0.15c2.49,1.1,5.01,2.99,7.55,5.68l5.3,6.2l6.72,0.52
		C529.1,101.9,531.69,102.43,532.49,103.08"/>
	<path class="st8" d="M483.78,98.67c0.85-1.74,1.69-2.69,2.54-2.84c0.85-0.2,0.87,0.6,0.07,2.39c-5.03,11.16-7.4,19.72-7.1,25.7
		c0.15,2.39-0.15,3.44-0.9,3.14c-0.75-0.3-1.25-1.64-1.49-4.03c-0.35-3.54-0.02-7,0.97-10.39
		C478.82,109.35,480.79,104.69,483.78,98.67"/>
	<path class="st8" d="M512.99,106.89c-0.05-1.49,0.27-2.12,0.97-1.87c0.7,0.25,1.17,1.12,1.42,2.62c0.4,2.39,0.45,5.83,0.15,10.31
		l-1.12,9.79c-0.4,2.19-0.95,3.49-1.64,3.89c-0.7,0.4-0.95-0.5-0.75-2.69C512.77,119.76,513.09,112.41,512.99,106.89"/>
	<path class="st8" d="M509.25,152.24l1.87-13.6c0.2-1.99,0.62-2.76,1.27-2.32c0.55,0.45,0.87,1.69,0.97,3.74
		c0.05,2.34-0.37,6.55-1.27,12.63l-1.72,9.49c-0.45,1.1-1.94,2.27-4.48,3.51c-2.54,1.34-4.63,1.97-6.28,1.87
		c-4.08-0.2-7.55-1.05-10.39-2.54l-4.33-3.14c-1.05-0.85-2.54-4.51-4.48-10.98c-1.99-6.53-2.99-11.16-2.99-13.9
		c0-2.19,0.32-3.34,0.97-3.44c0.65-0.1,1.07,1.05,1.27,3.44c0.25,3.24,1.32,7.62,3.21,13.15c1.74,5.23,3.14,8.42,4.18,9.56
		c1.25,1,2.84,1.89,4.78,2.69c2.59,1.05,5.21,1.64,7.85,1.79c1.25,0.05,2.84-0.37,4.78-1.27l3.14-2.02
		C507.96,159.96,508.51,157.07,509.25,152.24"/>
	<path class="st8" d="M515.46,164.94l2.47,1.12c-2.19,2.44-5.43,5.3-9.71,8.59c-4.38,3.34-7.8,5.53-10.24,6.57
		c-0.6-0.85-1.05-1.87-1.34-3.06c1.79-0.75,4.73-2.59,8.82-5.53L515.46,164.94"/>
	<path class="st8" d="M565.22,270.74l4.18,3.74c1.44,9.66,1.54,16.31,0.3,19.95c-2.19,6.38-16.19,16.29-41.99,29.74
		c-25.7,13.35-48.64,22.71-68.81,28.09c-0.85-1.25,0.12-2.49,2.91-3.74l4.41-2.09c20.47-6.53,41.72-15.64,63.73-27.35
		c22.27-11.85,34.37-20.55,36.31-26.08C567.41,289.91,567.06,282.49,565.22,270.74"/>
	<path class="st8" d="M561.03,234.5c3.09,13.05,5.4,23.66,6.95,31.83l-3.89-2.17c-2.04-11.46-6.57-32.03-13.6-61.71
		c-5.38-22.41-8.27-35.76-8.67-40.05c-0.05-0.35,0.4-0.8,1.34-1.34c0.95-0.6,1.44-0.72,1.49-0.37c0.7,6.38,3.46,19.77,8.29,40.2
		L561.03,234.5"/>
	<path class="st8" d="M599.14,286.5c0.3,0.15-0.12,0.3-1.27,0.45l-2.02-0.07c-22.17-11.76-43.31-29.24-63.43-52.45
		c-20.17-23.26-34.92-47.24-44.23-71.95l1.72,1.05l1.79,0.97c9.56,24.41,24.43,48.04,44.61,70.9
		C556.42,258.21,577.37,275.24,599.14,286.5"/>
	<path class="st8" d="M594.43,288.74v2.32c-18.33-9.26-37.13-23.86-56.41-43.78c-19.97-20.62-35.54-41.99-46.7-64.11l0.3-5.23
		c10.71,22.27,25.58,43.71,44.61,64.33C555.45,263.04,574.85,278.53,594.43,288.74"/>
	<path class="st8" d="M484.52,161.35l2.76,6.95c-1-0.85-2.47-1.79-4.41-2.84l-0.82-2.09L484.52,161.35"/>
	<path class="st8" d="M610.94,321.09c-2.09-1.99-3.14-4.38-3.14-7.17c0-1.79,0.47-3.41,1.42-4.86c0.05,0.2,0.2,0.32,0.45,0.37
		c0.35,0.05,0.6,0.15,0.75,0.3c-0.75,1.39-1.12,2.79-1.12,4.18c0,2.29,0.82,4.23,2.47,5.83c1.59,1.64,3.54,2.47,5.83,2.47
		c2.29,0,4.23-0.82,5.83-2.47c1.64-1.59,2.47-3.54,2.47-5.83c0-2.29-0.82-4.23-2.47-5.83c-1.59-1.64-3.54-2.47-5.83-2.47
		c-1.94,0-3.76,0.67-5.45,2.02l-0.37-1.72c0.55-0.55,1.39-1,2.54-1.34l3.29-0.6c2.74,0,5.06,1,6.95,2.99
		c1.84,1.94,2.76,4.26,2.76,6.95c0,2.74-0.97,5.08-2.91,7.02c-1.89,1.94-4.16,2.91-6.8,2.91
		C615.1,323.86,612.88,322.94,610.94,321.09"/>
	<path class="st8" d="M425.5,339.62l1.87-0.15c0.4,0.2,0.42,0.8,0.07,1.79l-2.09,6.72l4.03-0.07l5.9,0.15
		c1.3,0.15,2.04,0.37,2.24,0.67c0.15,0.3,0.02,1.05-0.37,2.24c-0.55,1.54-2.14,3.84-4.78,6.87l5.08,3.36l4.78,3.59l0.37,0.82
		l-0.6,0.82c-1.39,1.2-5.06,2.76-10.98,4.71l1.27,3.44l1.2,3.81l-0.3,1.34c-0.2,0.25-0.62,0.4-1.27,0.45l-4.71-0.75l1.72,5.01
		l1.2,3.59c0,0.85-0.22,1.3-0.67,1.34l-1.87-0.3l-3.21-1.2l-3.29-1.57l0.9,5.75c0.1,1.1,0.02,1.74-0.22,1.94l-2.24-0.37l-3.06-1.79
		l-3.14-2.09l0.15,5.6l-0.3,1.34l-1.42,0.15l-2.39-1.64l-1.79-1.34l-0.15,2.09l-0.3,2.54c-0.2,0.95-0.45,1.44-0.75,1.49
		c-0.3,0.05-0.9-0.3-1.79-1.05l-3.96-3.51c-0.3,1.44-0.55,4.03-0.75,7.77c-0.05,1.05-0.6,1.39-1.64,1.05l-3.66-2.39l-4.48-3.21
		c-0.6,1.34-1.89,5.7-3.89,13.08c-0.3,0.85-0.87,1.02-1.72,0.52c-1.59-1.05-4.06-3.79-7.4-8.22l-2.54,4.48
		c-0.55,0.8-1.17,0.92-1.87,0.37l-2.69-3.44l-2.62-4.11l-2.09,2.84l-1.49,2.09l-1.79,1.27l-1.57-1.05l-2.02-2.76l-1.72-2.76
		c-0.6,1.54-1.37,4.13-2.32,7.77c-0.75,1.94-1.54,2.49-2.39,1.64c-1.25-1.15-2.59-2.89-4.03-5.23l-1.79-3.21l-8.07,10.16
		c-0.55,0.65-1.07,0.82-1.57,0.52l-1.12-1.27c-0.7-0.95-1.44-2.79-2.24-5.53l-1.57-5.68l-2.39,1.64l-1.49,1.2l-0.9,0.22l-0.75-0.75
		l-1.64-4.11l-8.14,6.35l-1.49,0.07c-0.3-0.25-0.57-0.8-0.82-1.64l-0.6-3.81l-0.52-5.16l-4.56,4.11c-1.05,0.65-1.84,0.92-2.39,0.82
		c-0.55-0.1-0.9-0.62-1.05-1.57l-0.75-5.83l-9.56,5.16c-1.94,0.55-2.61-0.55-2.02-3.29c0.2-0.95,0.87-2.86,2.02-5.75l1.87-4.48
		l-3.36-1.12l-2.54-0.75l-0.9-0.82l0.67-1.05l1.34-0.9l1.42-0.9l-2.69-1.27l-2.32-1.12c-0.55-0.4-0.67-0.92-0.37-1.57
		c0.55-1.05,2.69-3.06,6.43-6.05l-7.99-7.4c-0.95-0.85-0.87-1.54,0.22-2.09l12.1-1.64l-1.34-5.01l-1.2-3.66
		c-0.25-0.8,0.1-1.25,1.05-1.34c0.85-0.1,1.89,0.15,3.14,0.75c1.34,0.7,2.44,1.59,3.29,2.69c0.8,1,1.07,1.74,0.82,2.24
		c-0.25,0.5-0.95,0.17-2.09-0.97c-0.5-0.55-1.62-1.17-3.36-1.87l1.57,6.8l0.07,1.64c-0.1,0.45-0.47,0.67-1.12,0.67l-4.26,0.45
		l-5.08,0.97l6.2,6.87l0.52,1.2l-1.12,1.2c-1.54,1.05-3.01,2.64-4.41,4.78l3.66,2.24c0.75,0.4,1.12,0.75,1.12,1.05l-0.97,1.12
		l-1.49,1.42c1.49,0.45,2.69,0.87,3.59,1.27c0.95,0.55,1.44,0.97,1.49,1.27l-0.97,3.51c-1.59,3.74-2.44,6.43-2.54,8.07l4.93-2.47
		c2.84-1.39,4.43-2.12,4.78-2.17l1.05,0.22l0.3,0.97l1.2,5.45l5.3-4.03c1.59-1.1,2.69,1.27,3.29,7.1l0.3,2.76l7.55-5.68
		c0.45-0.35,0.77-0.5,0.97-0.45l0.82,0.82l2.17,3.29l3.36-1.72c0.65-0.3,1.1-0.42,1.34-0.37l0.82,1.12c1.3,4.28,2.62,7.55,3.96,9.79
		l8.14-8.89c0.8-0.7,1.42-0.62,1.87,0.22l1.87,2.84l3.29,4.41c1.39-3.93,2.47-6.65,3.21-8.14c0.65-1.44,1.37-1.47,2.17-0.07
		c1.15,1.74,2.64,3.34,4.48,4.78l4.18-4.71c0.4-0.55,0.72-0.82,0.97-0.82c0.35-0.05,0.72,0.32,1.12,1.12l1.79,2.69l2.99,3.89
		c1.25-2.09,2.32-3.54,3.21-4.33c0.4-0.35,0.67-0.5,0.82-0.45l0.97,0.9c1.44,2.19,3.51,4.33,6.2,6.43
		c2.34-6.72,3.79-10.58,4.33-11.58l0.9-0.75l1.05,0.52l6.95,4.48c0.35-2.99,0.75-5.45,1.2-7.4c0.15-0.65,0.35-1.02,0.6-1.12
		c0.3-0.1,0.72,0.05,1.27,0.45l4.41,2.99l0.52-3.59c0.2-1.1,0.75-1.49,1.64-1.2c0.95,0.35,2.19,1.1,3.74,2.24
		c0-2.49,0.15-4.28,0.45-5.38c0.25-1.1,0.87-1.34,1.87-0.75c1.74,1.2,3.76,2.37,6.05,3.51l-0.45-5.75c-0.1-1.44,0.47-1.84,1.72-1.2
		c1.54,0.8,3.51,1.52,5.9,2.17l-1.87-7.55c-0.3-1.3,0.2-1.82,1.49-1.57l4.71,0.67l-1.79-5.83c-0.25-0.75-0.35-1.3-0.3-1.64
		c0.1-0.45,0.45-0.77,1.05-0.97c4.48-1.64,7.45-2.91,8.89-3.81c-4.58-3.39-7.35-5.53-8.29-6.43l-0.52-0.6
		c-0.1-0.25,0.02-0.6,0.37-1.05c1.79-2.39,3.14-4.68,4.03-6.87l-5.75-0.22h-4.41c-0.85,0-1.27-0.42-1.27-1.27l1.79-7.1l-4.41,1.34
		l-1.87-0.15c-0.05-0.5,0.45-1,1.49-1.49C422.24,340.55,424.1,339.87,425.5,339.62"/>
	<path class="st8" d="M254.77,295.99l3.89,4.03c0.7,0.9,0.9,1.49,0.6,1.79c-0.35,0.3-0.95,0.07-1.79-0.67
		c-1.74-1.59-3.69-3.11-5.83-4.56l0.15,3.44c0,0.85-0.47,1.25-1.42,1.2l-5.38,0.3c-2.09,0.35-3.71,0.77-4.86,1.27
		c2.84,3.84,4.38,6.08,4.63,6.72c0.3,0.5,0.2,0.97-0.3,1.42c-1.49,1.34-3.14,3.11-4.93,5.3l3.96,3.14l0.9,0.75l-0.67,1.05
		c-1.34,1.1-2.79,2.57-4.33,4.41c0.7,0.65,1.92,1.2,3.66,1.64c0.75,0.2,1.17,0.45,1.27,0.75l-0.6,1.2l-2.47,2.84l2.99,1.79
		c0.55,0.35,0.82,0.67,0.82,0.97l-0.67,0.97c-2.04,1.84-4.18,4.63-6.43,8.37l5.23,0.9l3.74,0.3c0.9-0.1,1.39,0.05,1.49,0.45
		l-0.3,1.27l-1.64,6.28l4.11-0.75l1.27,0.22l-0.07,1.42l-1.79,5.01l6.8-0.67c1.15-0.15,1.59,0.35,1.34,1.49l-2.39,11.88
		c1.64-0.7,4.36-2.09,8.14-4.18l1.94-0.97c0.65-0.35,1.17-0.2,1.57,0.45c0.65,1.15,1.17,3.34,1.57,6.57l0.22,1.49
		c1.25-0.5,2.29-1.17,3.14-2.02c0.65-0.7,1.25-0.65,1.79,0.15c0.65,0.8,1.72,2.91,3.21,6.35c1.39-1.34,2.57-2.84,3.51-4.48
		c0.45-0.75,0.82-1.15,1.12-1.2c0.3-0.05,0.62,0.25,0.97,0.9l3.44,9.19c2.29-3.34,4.26-5.93,5.9-7.77c0.1-0.1,0.45,0.15,1.05,0.75
		c0.55,0.6,0.75,0.97,0.6,1.12c-1.34,1.49-3.64,4.56-6.87,9.19l-2.02-0.07l-3.06-9.79l-3.36,4.26l-1.64,1.12
		c-0.5,0.15-0.92-0.17-1.27-0.97l-2.62-6.35l-4.33,2.47c-0.7,0.15-1.17-0.02-1.42-0.52c-0.4-0.6-0.85-3.49-1.34-8.67
		c-6.57,4.13-10.53,6.33-11.88,6.57c-0.95,0.1-1.42-0.45-1.42-1.64l1.49-6.57l1.64-6.2l-7.47,0.75c-0.7,0.05-1.12-0.07-1.27-0.37
		c-0.15-0.2-0.15-0.57,0-1.12l2.32-5.45c-2.19,0.75-3.71,1.1-4.56,1.05c-1-0.05-1.37-0.55-1.12-1.49c0.75-3.54,1.27-5.78,1.57-6.72
		c-5.48-0.45-8.94-1.02-10.39-1.72c-0.8-0.35-0.97-0.92-0.52-1.72c0.6-1,1.82-2.52,3.66-4.56l4.26-4.56l-2.91-1.57
		c-0.75-0.45-1.17-0.8-1.27-1.05c-0.1-0.25,0.05-0.62,0.45-1.12l3.06-2.54c-1.34-0.4-2.54-0.9-3.59-1.49
		c-1.05-0.6-1.62-1.05-1.72-1.34c-0.1-0.25,0.07-0.65,0.52-1.2l2.32-2.09l2.54-2.17c-2.89-1.69-4.63-2.86-5.23-3.51
		c-0.35-0.35-0.4-0.77-0.15-1.27l2.69-2.54l3.81-3.36l-2.54-3.06l-3.21-3.96c-0.7-0.9-0.5-1.52,0.6-1.87l5.75-1.34l6.5-0.67
		c-0.45-2.54-0.65-4.06-0.6-4.56l0.37-1.05l1.27,0.07C251.96,293.85,253.23,294.7,254.77,295.99"/>
	<path class="st8" d="M270.24,232.78c0.2,0.1,0.22,0.62,0.07,1.57c-0.2,0.9-0.42,1.25-0.67,1.05l-2.62-1.42l-2.09-0.75v5.53
		l-0.07,1.72c-0.15,0.5-0.55,0.77-1.2,0.82l-5.01,0.07l1.34,4.78l0.22,1.34c-0.15,0.25-0.52,0.4-1.12,0.45l-2.62,0.07l1.27,3.29
		c0.35,0.95-0.07,1.42-1.27,1.42l-5.53,0.3l1.79,4.86c0.25,1,0.1,1.69-0.45,2.09l-6.65,3.74l5.23,6.72c0.45,0.65,0.2,1.22-0.75,1.72
		l-4.33,1.57l4.11,4.56l0.22,0.75l-0.52,0.67l-4.48,3.59l4.41,2.62l0.37,0.67l-0.45,0.75l-5.68,5.83l2.91,2.02l2.91,1.87l0.6,2.24
		c-4.53-1.74-7.7-3.36-9.49-4.86c-0.6-0.45-0.67-1-0.22-1.64l3.36-3.06l3.36-2.91l-2.09-0.9l-2.91-1.64
		c-0.9-0.6-0.92-1.32-0.07-2.17l5.6-3.44c-2.64-2.19-4.26-3.79-4.86-4.78c-0.3-0.6-0.22-1.12,0.22-1.57l2.76-1.05l2.32-0.52
		l-5.9-6.87c-0.5-0.8-0.37-1.39,0.37-1.79l8.07-3.59l-2.91-6.28c-0.4-0.95-0.15-1.47,0.75-1.57l3.59,0.07l3.21,0.22
		c-1.15-2.09-1.82-3.49-2.02-4.18c-0.2-0.85,0.17-1.27,1.12-1.27l3.59,0.07l-1.94-5.16c-0.25-0.95,0.1-1.44,1.05-1.49l5.6,0.37
		l-0.22-3.66l-0.07-4.33c0.15-0.8,0.37-1.27,0.67-1.42l1.87,0.45L270.24,232.78"/>
	<path class="st8" d="M259.85,269.77c2.29-0.25,4.78,0.17,7.47,1.27c-0.4,0.9-0.6,1.79-0.6,2.69c-1.74-1.3-3.98-1.99-6.72-2.09
		c-2.49-0.05-3.76-0.32-3.81-0.82C256.14,270.36,257.36,270.01,259.85,269.77"/>
	<path class="st8" d="M286.9,318.03l1.87,2.02c-3.09,0.85-5.48,1.89-7.17,3.14c-1.59,1.15-2.59,1.54-2.99,1.2
		c-0.4-0.4,0.1-1.25,1.49-2.54C281.85,320.2,284.11,318.93,286.9,318.03"/>
	<path class="st8" d="M291.31,323.26c0.3-0.2,0.95,0.02,1.94,0.67c1,0.65,1.34,1.05,1.05,1.2c-1.99,0.8-4.98,3.09-8.97,6.87
		c-4.23,4.08-7.17,7.65-8.82,10.68c-1.1,2.04-1.92,2.89-2.47,2.54c-0.5-0.35-0.25-1.59,0.75-3.74c1.64-3.39,4.21-6.95,7.7-10.68
		C285.63,327.47,288.57,324.95,291.31,323.26"/>
	<path class="st8" d="M382.39,351.73c-0.85-0.9-0.97-1.39-0.37-1.49c0.55-0.1,1.3,0.27,2.24,1.12c2.54,2.19,4.73,5.53,6.57,10.01
		c0.7,1.64,0.82,2.81,0.37,3.51c-0.45,0.65-1.05,0.15-1.79-1.49l-2.99-5.6C384.83,354.99,383.48,352.97,382.39,351.73"/>
	<path class="st8" d="M387.62,335.44c-0.3-0.1-0.07-0.47,0.67-1.12c0.75-0.65,1.27-0.92,1.57-0.82c1.25,0.55,2.94,1.67,5.08,3.36
		c2.49,1.94,4.33,3.74,5.53,5.38c1.25,1.64,1.72,2.79,1.42,3.44s-1.05,0.22-2.24-1.27c-1.1-1.34-3.16-3.11-6.2-5.3
		C390.66,337.11,388.71,335.89,387.62,335.44"/>
	<path class="st8" d="M427.89,281.57l0.52-2.62l9.86,0.37c3.39,0.5,6.05,1.32,7.99,2.47c1.84,1.05,2.86,2.02,3.06,2.91
		c0.2,0.85-0.6,0.75-2.39-0.3c-1.89-1.1-4.81-1.92-8.74-2.47L427.89,281.57"/>
	<path class="st8" d="M429.01,274.25v-2.62c4.53-0.55,8.49-0.52,11.88,0.07c2.44,0.4,3.84,0.95,4.18,1.64
		c0.4,0.65-0.6,0.9-2.99,0.75C435.66,273.9,431.3,273.95,429.01,274.25"/>
	<path class="st8" d="M439.99,306.45c-1.25-1.44-1.72-2.39-1.42-2.84c0.35-0.4,1.22,0,2.62,1.2c1.49,1.3,4.68,3.01,9.56,5.16
		c1.59,0.7,1.97,1.2,1.12,1.49l-3.74-0.45C444.05,309.56,441.34,308.04,439.99,306.45"/>
	<path class="st8" d="M597.19,287.77c-0.6,0-1.1,0.22-1.49,0.67c-0.45,0.4-0.67,0.9-0.67,1.49s0.22,1.12,0.67,1.57
		c0.4,0.4,0.9,0.6,1.49,0.6s1.1-0.2,1.49-0.6c0.4-0.45,0.6-0.97,0.6-1.57s-0.2-1.1-0.6-1.49C598.29,288,597.79,287.77,597.19,287.77
		 M594.43,286.95c0.8-0.8,1.74-1.2,2.84-1.2c1.15,0,2.09,0.4,2.84,1.2c0.8,0.8,1.2,1.74,1.2,2.84c0,1.15-0.4,2.09-1.2,2.84
		c-0.75,0.8-1.69,1.2-2.84,1.2c-1.1,0-2.04-0.4-2.84-1.2c-0.8-0.75-1.2-1.69-1.2-2.84C593.23,288.69,593.63,287.75,594.43,286.95"/>
	<path class="st8" d="M599.96,290.83c-0.25-0.15-0.27-0.6-0.07-1.34c0.2-0.7,0.42-0.95,0.67-0.75c1.89,1.44,4.13,3.84,6.72,7.17
		c2.89,3.79,4.81,7.05,5.75,9.79c0.4,1.05,0.37,2.09-0.07,3.14c-0.4,0.9-0.97,1.49-1.72,1.79c-0.7,0.3-1.39,0.3-2.09,0
		c-0.75-0.35-1.32-1-1.72-1.94c-0.95-2.29-2.57-5.06-4.86-8.29c-2.34-3.24-4.51-5.73-6.5-7.47c-0.2-0.2,0.15-0.32,1.05-0.37
		l1.72,0.22c1.99,1.99,4.01,4.56,6.05,7.7c2.04,3.04,3.54,5.7,4.48,7.99c0.4,0.95,0.95,1.17,1.64,0.67c0.7-0.45,0.85-1.27,0.45-2.47
		c-0.9-2.39-2.47-5.18-4.71-8.37C604.37,295.07,602.1,292.58,599.96,290.83"/>
	<path class="st8" d="M243.34,346.5l3.44,1.79c-9.56,7.52-15.52,12.03-17.86,13.52l-1.64-2.24
		C229.02,358.63,234.38,354.27,243.34,346.5"/>
	<path class="st8" d="M113.86,325.5c1.34,0.55,2.71,1.59,4.11,3.14l3.74,4.78c2.44,3.39,4.43,5.65,5.98,6.8
		c1.79,1.34,4.71,2.62,8.74,3.81l3.36,1.2c0.95,0.4,1.59,0.87,1.94,1.42c4.78,7.42,17.93,20.57,39.45,39.45
		c23.16,20.32,38.03,30.56,44.61,30.71c5.88,0.15,16.09-3.96,30.63-12.33c14-8.07,23.61-15.04,28.84-20.92l1.05,1.57l0.97,1.64
		c-6.18,6.38-16.46,13.6-30.86,21.67c-14.99,8.42-25.5,12.55-31.53,12.4c-7.42-0.15-22.54-10.61-45.35-31.38
		c-20.77-18.83-33.8-32.35-39.08-40.57c-0.6-0.85-2.52-1.59-5.75-2.24c-3.74-0.8-6.7-2.02-8.89-3.66c-1.84-1.39-3.89-3.71-6.13-6.95
		l-2.91-4.78c-1.25-1.79-2.54-2.96-3.89-3.51c-2.39-1.05-4.81-1.22-7.25-0.52v-2.54C108.43,324.03,111.17,324.31,113.86,325.5"/>
	<path class="st8" d="M156.52,302.64c1.1-1.49,1.77-1.72,2.02-0.67c0.25,1-0.17,2.27-1.27,3.81c-5.28,7.17-10.68,11.28-16.21,12.33
		c-3.49,0.65-7.37-0.2-11.66-2.54c-4.28-2.34-6.18-4.71-5.68-7.1c0.7-3.44,3.04-8.82,7.02-16.14c4.33-7.97,7.89-12.8,10.68-14.49
		c4.18-2.54,11.36-4.16,21.52-4.86c10.61-0.8,17.46,0.1,20.55,2.69c1.84,1.54,3.41,4.48,4.71,8.82c0.8,2.69,1.72,6.97,2.76,12.85
		l1.12,7.4c0.4,2.44,0.97,4.43,1.72,5.98c2.24,4.63,7.67,13.08,16.29,25.33c9.51,13.5,16.34,21.94,20.47,25.33
		c3.14,2.59,4.61,4.46,4.41,5.6c-0.2,1.2-1.87,0.5-5.01-2.09c-4.28-3.49-11.53-12.43-21.74-26.82c-8.87-12.4-14.52-20.9-16.96-25.48
		c-1.1-2.19-2.32-7.02-3.66-14.49c-0.95-5.53-1.77-9.54-2.47-12.03c-1.2-4.13-2.57-6.85-4.11-8.14c-2.59-2.14-8.64-2.84-18.16-2.09
		c-9.36,0.75-16.01,2.32-19.95,4.71c-2.29,1.34-5.38,5.78-9.26,13.3c-3.59,6.82-5.78,11.95-6.57,15.39c-0.4,1.74,1.3,3.36,5.08,4.86
		c3.59,1.44,6.4,1.97,8.44,1.57c2.54-0.5,5.4-2.12,8.59-4.86C151.84,308.44,154.28,305.73,156.52,302.64"/>
	<path class="st8" d="M147.78,313.25c0.05-0.4,0.67-1.02,1.87-1.87c1.2-0.8,1.74-1.02,1.64-0.67c-0.8,3.29-0.7,7.12,0.3,11.51
		c1.05,4.68,2.76,8.22,5.16,10.61c1.25,1.2,1.44,1.92,0.6,2.17s-1.87-0.25-3.06-1.49c-2.44-2.44-4.26-5.58-5.45-9.41
		C147.73,320.5,147.38,316.89,147.78,313.25"/>
	<path class="st8" d="M134.63,279.1c-0.3-0.2-0.3-0.67,0-1.42c0.3-0.8,0.6-1.1,0.9-0.9l5.08,3.89c0.15,0.15,0,0.6-0.45,1.34
		c-0.45,0.75-0.77,1-0.97,0.75C138.44,281.87,136.92,280.65,134.63,279.1"/>
	<path class="st8" d="M133.44,240.85c1.94-0.35,4.93,0.55,8.97,2.69c1.94,1.05,5.9,3.46,11.88,7.25l2.76,2.69l5.08,5.38l9.86,9.34
		c3.93,3.49,6.92,5.93,8.97,7.32l-2.17,0.3c-1.89-0.15-3.29-0.6-4.18-1.34c-2.99-2.49-7.72-7.15-14.2-13.97l-7.4-7.25
		c-10.01-6.38-16.39-9.31-19.13-8.82c-3.59,0.7-6.77,1.59-9.56,2.69c-3.29,1.3-5.3,2.64-6.05,4.03c-2.74,4.68-5.43,11.83-8.07,21.44
		c-3.29,11.9-3.29,18.98,0,21.22c2.19,1.44,5.73,0.85,10.61-1.79c4.83-2.59,8.47-5.8,10.91-9.64c0.65-0.95,1.52-2.79,2.62-5.53
		c1.25-3.09,1.99-5.5,2.24-7.25c0.35-2.04,0.82-2.81,1.42-2.32c0.65,0.55,0.8,1.84,0.45,3.89c-0.35,1.99-1.07,4.51-2.17,7.55
		c-1.05,2.84-1.89,4.73-2.54,5.68c-3.04,4.78-7.2,8.47-12.48,11.06c-5.33,2.59-9.49,2.86-12.48,0.82
		c-4.38-2.94-4.86-11.26-1.42-24.95c2.49-10.11,5.01-17.46,7.55-22.04c1.05-1.74,3.59-3.49,7.62-5.23
		C126.06,242.62,129.7,241.55,133.44,240.85"/>
	<path class="st8" d="M112.07,295.69l2.47,0.07c-1.34,6.72-2.69,10.73-4.03,12.03c-3.39,3.44-6.75,5.93-10.09,7.47
		c-3.39,1.59-6.3,1.99-8.74,1.2c-3.29-1-5.28-3.56-5.98-7.7c-1.05-6.38-1.07-13.22-0.07-20.55c1.1-8.32,3.29-14.77,6.57-19.35
		c1.89-2.59,5.58-4.91,11.06-6.95c3.84-1.44,7.27-2.42,10.31-2.91c0.05,0.85-0.47,2.02-1.57,3.51c-3.14,0.65-6.15,1.59-9.04,2.84
		c-3.89,1.64-6.53,3.41-7.92,5.3c-3.04,4.33-5.16,10.26-6.35,17.78c-1.1,6.97-1.15,13.42-0.15,19.35c0.45,3.14,1.87,5.08,4.26,5.83
		c2.04,0.65,4.46,0.3,7.25-1.05c2.84-1.3,5.75-3.46,8.74-6.5C109.78,305.08,110.87,301.62,112.07,295.69"/>
	<path class="st8" d="M87.26,287.32l-0.6,3.66l-1.87,0.52c-0.65,0.4-1.25,1.15-1.79,2.24c-2.09,4.13-4.06,8.94-5.9,14.42
		c-2.34,7.07-3.06,11.71-2.17,13.9c0.95,2.24,3.26,3.29,6.95,3.14c2.94-0.15,5.73-1.1,8.37-2.84c2.94-1.89,5.03-4.36,6.28-7.4
		l1.49-0.6l1.27,0.07c-1.2,3.93-3.54,7.22-7.02,9.86c-3.29,2.49-6.67,3.81-10.16,3.96c-2.29,0.1-4.28-0.25-5.98-1.05
		c-1.74-0.85-2.94-2.04-3.59-3.59c-1.25-2.99-0.35-9.17,2.69-18.53l5.01-13.37C81.58,289.14,83.92,287.67,87.26,287.32"/>
	<path class="st8" d="M103.48,312.43l1.87-1.94c1.1,2.44,1.59,6.75,1.49,12.93c-0.05,6.57-0.82,11.56-2.32,14.94
		c-1.74,4.03-5.03,7.12-9.86,9.26c-4.73,2.04-8.64,2.27-11.73,0.67c-1.59-0.8-2.64-3.49-3.14-8.07c-0.4-3.79-0.42-8.32-0.07-13.6
		l2.99-0.07c-0.35,5.33-0.35,9.79,0,13.37c0.3,3.29,0.82,5.13,1.57,5.53c2.09,1.1,5.25,0.65,9.49-1.34c4.23-1.99,7-4.46,8.29-7.4
		c1.2-2.74,1.92-6.85,2.17-12.33C104.52,319.05,104.27,315.07,103.48,312.43"/>
	<path class="st8" d="M285.48,386.32l4.18-3.59c0.3,8.12,0.32,14.87,0.07,20.25c-0.55,9.56-1.94,16.99-4.18,22.27
		c-1.39,3.24-6.13,9.79-14.2,19.65l-21.67,25.4c-5.83,6.67-9.17,10.63-10.01,11.88c-1.44,2.04-3.11,6.5-5.01,13.37
		c-1.74,6.28-2.69,10.66-2.84,13.15c-0.1,3.24,3.56,11.61,10.98,25.1c8.22,14.89,14.97,22.91,20.25,24.06
		c2.19,0.5,3.11,1.05,2.76,1.64l-3.89,0.22c-6.08-1.34-13.55-9.69-22.41-25.03c-3.24-5.58-6.05-11.08-8.44-16.51
		c-2.24-5.03-3.34-8.09-3.29-9.19c0.15-2.69,1.07-7.32,2.76-13.9c1.94-7.52,3.76-12.45,5.45-14.79l10.01-11.73l21.82-24.81
		c8.77-10.11,13.77-16.61,15.02-19.5c2.24-5.23,3.51-12.03,3.81-20.4C286.88,397.1,286.48,391.25,285.48,386.32"/>
	<path class="st8" d="M444.48,366.22l2.17-0.07l2.09,0.15c1.3,8.27,5.43,21.89,12.4,40.87c6.82,18.48,12.15,30.81,15.99,36.98
		l-3.89-4.26c-2.84-3.29-4.46-5.38-4.86-6.28c-3.54-7.47-7.89-18.45-13.08-32.95C449.73,385.18,446.12,373.69,444.48,366.22"/>
	<path class="st8" d="M460.91,427.19c-1.3-1.79-1.87-3.21-1.72-4.26c0.15-1.05,0.87-0.67,2.17,1.12l6.05,6.72l10.76,11.43
		l31.16,33.77c11.26,12.7,17.61,21.09,19.05,25.18c1.59,4.63,2.69,11.01,3.29,19.13c0.65,8.72,0.32,15.27-0.97,19.65
		c-1.59,5.33-4.33,11.13-8.22,17.41l-11.88,17.33l-5.75,7.99l-5.98,8.59c-1.3,1.99-2.04,2.39-2.24,1.2
		c-0.25-1.2,0.27-2.79,1.57-4.78l9.79-14.2c5.33-7.57,9.09-13.2,11.28-16.89c3.54-6.03,6.1-11.66,7.7-16.89
		c1.25-4.08,1.49-10.44,0.75-19.05c-0.65-7.97-1.74-14.17-3.29-18.6c-1.39-3.98-7.65-12.4-18.75-25.25
		c-6.28-7.32-16.26-18.38-29.96-33.17L460.91,427.19"/>
	<path class="st8" d="M311.33,520.66c-1.25,1.69-1.92,2.04-2.02,1.05c-0.1-0.95,0.47-2.27,1.72-3.96
		c5.53-7.27,18.8-13.65,39.82-19.13s35.51-6.33,43.48-2.54c12.85,6.03,30.04,18.28,51.55,36.76c1.25,1.1,1.97,2.27,2.17,3.51
		c0.25,1.3-0.25,1.42-1.49,0.37c-8.67-7.47-17.43-14.4-26.3-20.77c-10.46-7.57-19.38-13.1-26.75-16.59
		c-7.52-3.49-21.79-2.52-42.81,2.91C329.64,507.76,316.51,513.88,311.33,520.66"/>
	<path class="st8" d="M426.47,572.29l-3.44,5.08c-1,1.74-1.62,3.34-1.87,4.78c-0.9,5.38,0.4,14.3,3.89,26.75
		c3.84,13.55,8.09,21.49,12.78,23.83c3.89,1.94,10.09,2.99,18.6,3.14c7.32,0.1,12.85-0.35,16.59-1.34c1.49-0.35,2.66-1.67,3.51-3.96
		c0.65-1.69,1-3.51,1.05-5.45c0.05-1.74-0.1-2.91-0.45-3.51c-0.7-1-1.87-1.99-3.51-2.99c-1.99-1.2-4.36-2.14-7.1-2.84
		c-1.84-0.5-2.54-1.07-2.09-1.72l3.44-0.22c3.14,0.8,5.58,1.59,7.32,2.39c2.19,1,3.71,2.14,4.56,3.44c0.7,1,1,2.74,0.9,5.23
		c-0.05,2.49-0.45,4.71-1.2,6.65c-0.55,1.44-1.37,2.71-2.47,3.81c-1.1,1.05-2.22,1.69-3.36,1.94l-17.71,1.42
		c-9.66-0.1-16.66-1.22-20.99-3.36c-5.43-2.74-9.89-11.36-13.37-25.85c-3.09-12.7-4.16-21.97-3.21-27.79
		c0.5-2.79,2.52-6.65,6.05-11.58c3.89-5.33,6.77-10.24,8.67-14.72c3.19-7.47,5.13-16.34,5.83-26.6c0.05-0.35,0.7,0.02,1.94,1.12
		c1.25,1.05,1.82,1.72,1.72,2.02c-1.44,9.96-3.89,18.65-7.32,26.08C433.22,562.35,430.3,567.11,426.47,572.29"/>
	<path class="st8" d="M494.76,613.53c-2.14-0.7-2.99-1.29-2.54-1.79l4.03,0.07c6.18,1.44,9.76,3.91,10.76,7.4
		c0.85,2.89,0.4,6.33-1.34,10.31c-1.74,3.89-3.71,6.18-5.9,6.87l-12.4,0.75l-14.35-1.27c-0.35-0.1-0.07-0.5,0.82-1.2
		c0.95-0.75,1.64-1.1,2.09-1.05l12.63,0.6l9.56-0.6c1.74-0.35,3.31-2.04,4.71-5.08c1.39-2.99,1.79-5.5,1.2-7.55
		c-0.35-1.39-1.39-2.79-3.14-4.18C499.19,615.47,497.15,614.38,494.76,613.53"/>
	<path class="st8" d="M499.24,588.2c-0.1-0.25,0.25-0.92,1.05-2.02c0.8-1.15,1.22-1.54,1.27-1.2c0.5,2.49,1.72,5.65,3.66,9.49
		c2.29,4.68,4.73,8.37,7.32,11.06c2.19,1.69,5.03,3.49,8.52,5.38l5.08,2.47c1.89,0.95,3.26,2.02,4.11,3.21
		c1.1,1.54,1.59,3.74,1.49,6.57c-0.1,2.64-0.67,5.13-1.72,7.47c-0.75,1.69-1.74,3.14-2.99,4.33c-1.3,1.15-2.59,1.82-3.89,2.02
		c-2.79,0.4-6.95,0.37-12.48-0.07c-5.48-0.45-9.39-1.07-11.73-1.87c-0.3-0.1-0.07-0.47,0.67-1.12c0.75-0.6,1.34-0.85,1.79-0.75
		l10.61,0.97c4.73,0.2,8.29,0.17,10.68-0.07c1.79-0.25,3.26-1.67,4.41-4.26c0.85-1.94,1.3-3.98,1.34-6.13
		c0.05-2.14-0.32-3.79-1.12-4.93l-3.14-3.14l-4.33-2.54c-3.29-1.79-6.25-3.66-8.89-5.6l-0.15-0.15c-2.44-2.54-4.81-5.78-7.1-9.71
		C501.73,594.18,500.24,591.04,499.24,588.2"/>
	<path class="st8" d="M480.11,523.65c0.7-2.14,1.37-3.21,2.02-3.21c0.65,0,0.67,1.07,0.07,3.21c-0.7,2.34-1.17,4.86-1.42,7.55
		c-0.25,3.34,0.02,5.55,0.82,6.65l3.81,5.38c2.19,3.74,3.36,7.32,3.51,10.76c0.1,1.69-0.22,2.81-0.97,3.36
		c-0.7,0.55-1.05-0.02-1.05-1.72c0-2.74-1.15-5.95-3.44-9.64l-4.86-6.72c-1.34-1.94-1.57-4.91-0.67-8.89L480.11,523.65"/>
	<path class="st8" d="M454.94,578.71c-0.75-1.74-0.85-2.66-0.3-2.76c0.5-0.05,1.17,0.47,2.02,1.57c2.19,2.99,4.83,5.58,7.92,7.77
		c1.15,0.8,1.47,1.34,0.97,1.64c-0.55,0.35-1.44,0.17-2.69-0.52C459.07,584.42,456.43,581.85,454.94,578.71"/>
	<path class="st8" d="M446.79,613.53c3.44-1.15,6.8-1.37,10.09-0.67c1.59,0.3,2.39,0.67,2.39,1.12c0,0.5-1,0.72-2.99,0.67l-9.49,0.6
		c-1.44,0.2-2.14,0.07-2.09-0.37C444.7,614.43,445.4,613.98,446.79,613.53"/>
	<path class="st8" d="M478.84,612.78c-2.49,0.35-3.66,0.17-3.51-0.52c0.15-0.7,1.47-1.25,3.96-1.64l2.69-0.3l4.26,0.15
		c1.39,0.25,2.04,0.6,1.94,1.05c-0.15,0.45-0.87,0.65-2.17,0.6L478.84,612.78"/>
	<path class="st8" d="M294.82,540.53c1.3-2.14,2.19-3.14,2.69-2.99s0.4,1.3-0.3,3.44c-0.7,2.14-2.12,4.58-4.26,7.32
		c-2.34,3.04-5.01,5.63-7.99,7.77c-1.89,1.39-3.46,2.07-4.71,2.02c-1.25,0-0.92-0.7,0.97-2.09c2.54-1.84,5.23-4.48,8.07-7.92
		L294.82,540.53"/>
	<path class="st8" d="M275.02,596.35c-1.44-3.34-2.09-6.57-1.94-9.71c0.2-3.24,1.22-5.73,3.06-7.47c0.95-0.85,3.34-1.89,7.17-3.14
		l5.38-1.57l3.89-0.15c0.85,0.5,0.4,1.07-1.34,1.72l-5.53,2.09c-3.79,1.54-6.08,2.66-6.87,3.36c-1.54,1.44-2.42,3.36-2.62,5.75
		c-0.2,2.44,0.3,5.03,1.49,7.77c1.25,2.89,7.1,4.16,17.56,3.81l17.04-1.57c1.39-0.3,3.49-1.89,6.28-4.78
		c3.24-3.34,5.65-6.8,7.25-10.39c7.07-15.84,10.61-24.73,10.61-26.67c0-3.44-0.37-6.43-1.12-8.97c-0.7-2.34-1.54-3.84-2.54-4.48
		c-4.53-2.99-8.02-6-10.46-9.04c-4.43-5.48-6.38-11.58-5.83-18.31l2.54-2.09c1.64-1.25,2.44-1.72,2.39-1.42
		c-1.84,7.12-1.15,13.35,2.09,18.68c2.09,3.44,5.65,6.82,10.68,10.16c1.59,1.1,2.89,3.21,3.89,6.35c0.85,2.79,1.27,5.73,1.27,8.82
		c0,1.3-1.15,4.91-3.44,10.83l-7.17,17.04c-1.94,4.33-4.61,8.39-7.99,12.18c-3.19,3.54-5.65,5.4-7.4,5.6l-18.83,1.94
		C283.41,602.9,276.91,600.78,275.02,596.35"/>
	<path class="st8" d="M262.77,575.05c2.24-1.05,3.54-1.27,3.89-0.67c0.35,0.6-0.6,1.42-2.84,2.47c-5.73,2.64-9.09,4.81-10.09,6.5
		c-1.44,2.44-2.04,5.01-1.79,7.7c0.2,2.59,1.12,4.46,2.76,5.6c3.98,2.79,12.48,3.44,25.48,1.94c0.6-0.05,1.42,0.25,2.47,0.9
		c1.1,0.7,1.44,1.07,1.05,1.12l-16.74,1.57c-6.62,0.1-11.36-0.85-14.2-2.84c-2.14-1.49-3.49-3.98-4.03-7.47
		c-0.55-3.64,0.05-6.9,1.79-9.79c0.9-1.44,2.94-2.91,6.13-4.41C258.29,576.87,260.33,576,262.77,575.05"/>
	<path class="st8" d="M255.82,554.58c0.75-0.05,1.47,0.3,2.17,1.05c0.7,0.8,0.87,1.57,0.52,2.32c-4.33,9.12-7.17,13.95-8.52,14.49
		l-7.02,3.14c-4.78,2.24-7.57,3.79-8.37,4.63c-1.3,1.34-2.17,3.64-2.62,6.87c-0.55,3.59-0.15,6.25,1.2,7.99
		c1,1.34,3.39,2.34,7.17,2.99c4.43,0.8,9.24,0.72,14.42-0.22c0.35-0.05,0.97,0.25,1.87,0.9c0.85,0.65,1.1,1,0.75,1.05
		c-5.53,1.74-11.31,2.19-17.33,1.34c-5.53-0.8-9.09-2.22-10.68-4.26c-1.39-1.84-1.94-4.93-1.64-9.26c0.25-4.38,1.25-7.47,2.99-9.26
		c0.85-0.85,4.13-2.44,9.86-4.78l8.37-3.29c0.45-0.3,1.57-2.64,3.36-7.02L255.82,554.58"/>
	<path class="st8" d="M410.41,464.32c1.54-2.04,2.54-2.84,2.99-2.39c0.45,0.4,0.2,1.37-0.75,2.91l-3.21,6.05l-4.11,8.29
		c-0.8,1.89-1.34,2.37-1.64,1.42c-0.3-1-0.22-2.17,0.22-3.51c0.85-2.69,1.74-4.93,2.69-6.72
		C407.49,468.53,408.76,466.52,410.41,464.32"/>
	<path class="st8" d="M403.53,269.69c1.89,1.1,2.71,1.84,2.47,2.24s-1.34,0.1-3.29-0.9c-5.28-2.69-10.66-2.76-16.14-0.22
		c-5.58,2.59-10.31,7.42-14.2,14.49c-1.3,2.34-2.09,3.26-2.39,2.76c-0.35-0.5,0.05-1.92,1.2-4.26c3.59-7.27,8.17-12.33,13.75-15.17
		C391.1,265.56,397.31,265.9,403.53,269.69"/>
	<path class="st8" d="M402.41,277.01l2.39,0.22c-0.15,0.45-1.1,0.9-2.84,1.34c-4.13,1.2-8.77,2.96-13.9,5.3
		c-5.43,2.49-9.94,4.98-13.52,7.47c-1.25,0.9-1.74,0.9-1.49,0c0.2-0.85,0.95-1.74,2.24-2.69
		C383.46,282.64,392.5,278.76,402.41,277.01"/>
	<path class="st8" d="M389.49,291.58c1.64-0.65,2.44-0.77,2.39-0.37l-2.39,1.94c-1.44,0.85-3.46,1.59-6.05,2.24l-6.5,0.75
		l-3.14-0.82c-0.35-0.3,0.27-0.52,1.87-0.67C380.69,294.25,385.3,293.23,389.49,291.58"/>
	<path class="st8" d="M322.99,283.44c1.2,1.89,1.64,3.06,1.34,3.51c-0.35,0.5-1.2-0.25-2.54-2.24c-5.93-8.77-11.78-14.1-17.56-15.99
		c-4.73-1.54-9.17-0.75-13.3,2.39c-1.39,1.1-2.17,1.44-2.32,1.05c-0.15-0.35,0.42-1.17,1.72-2.47c4.48-4.28,9.41-5.5,14.79-3.66
		C311.21,268.07,317.16,273.87,322.99,283.44"/>
	<path class="st8" d="M319.78,289.04c1.44,1.15,2.02,1.87,1.72,2.17c-0.3,0.25-1.2-0.07-2.69-0.97
		c-8.22-5.08-16.64-8.79-25.25-11.13c-2.94-0.8-4.33-1.47-4.18-2.02l4.78,0.22c4.53,0.95,9.04,2.44,13.52,4.48
		C312.3,283.89,316.34,286.3,319.78,289.04"/>
	<path class="st8" d="M318.8,294.5c1.69,0.05,2.24,0.27,1.64,0.67l-3.59,0.67l-6.05-0.6c-2.59-0.6-4.61-1.32-6.05-2.17
		c-1.84-1.05-2.66-1.74-2.47-2.09c0.2-0.4,1.27-0.15,3.21,0.75c1.25,0.6,3.29,1.17,6.13,1.72L318.8,294.5"/>
	<path class="st8" d="M311.18,276.04c-0.05-1.2,0.02-2.22,0.22-3.06c0.25-1,0.6-1.49,1.05-1.49c0.45-0.05,0.82,0.4,1.12,1.34
		l0.45,3.14l-0.22,3.06c-0.25,1-0.6,1.49-1.05,1.49c-0.45,0.05-0.82-0.4-1.12-1.34L311.18,276.04"/>
	<path class="st8" d="M381.57,275.22c0-1.15,0.15-2.17,0.45-3.06c0.3-0.95,0.67-1.42,1.12-1.42c0.45,0.05,0.8,0.55,1.05,1.49
		l0.3,3.06l-0.45,3.06c-0.35,0.95-0.75,1.42-1.2,1.42c-0.45,0-0.8-0.5-1.05-1.49C381.59,277.44,381.52,276.41,381.57,275.22"/>
</g>
</svg>
